/* XPM */
static char *result[] = {
/* columns rows colors chars-per-pixel */
"30 29 195 2 ",
"   c #9F490C",
".  c #A2470A",
"X  c #A44A0B",
"o  c #AA4A0B",
"O  c #BB490A",
"+  c #AF550E",
"@  c #BE570D",
"#  c #B95F0E",
"$  c #A24E11",
"%  c #A45C19",
"&  c #AD631C",
"*  c #B46011",
"=  c #C04A0C",
"-  c #C7500C",
";  c #D25B0E",
":  c #C35F12",
">  c #C96612",
",  c #CE6A11",
"<  c #C66114",
"1  c #D66712",
"2  c #D36B14",
"3  c #DA6D14",
"4  c #CE7015",
"5  c #CC7C1C",
"6  c #D97619",
"7  c #DD7D1D",
"8  c #D97516",
"9  c #E46E12",
"0  c #E47A15",
"q  c #ED7E14",
"w  c #E47D1A",
"e  c #EA7E18",
"r  c #DF851A",
"t  c #DA8516",
"y  c #F4800F",
"u  c #E58617",
"i  c #EE8014",
"p  c #E58119",
"a  c #EE851A",
"s  c #E38B1C",
"d  c #EB8B1A",
"f  c #F48414",
"g  c #F68B16",
"h  c #FA8B16",
"j  c #F3871C",
"k  c #F58C1B",
"l  c #FD8413",
"z  c #ED921F",
"x  c #EE9D1C",
"c  c #F59217",
"v  c #FB9616",
"b  c #FF9817",
"n  c #F5931A",
"m  c #FB9218",
"M  c #F69B1C",
"N  c #FC9B1A",
"B  c #F7A11C",
"V  c #FDA41A",
"C  c #FFAB1A",
"Z  c #FFB21B",
"A  c #FFB91F",
"S  c #CC8924",
"D  c #DD8321",
"F  c #CF932D",
"G  c #D79825",
"H  c #DF9D24",
"J  c #DB9E2D",
"K  c #D4992B",
"L  c #E08720",
"P  c #E48C24",
"I  c #E98825",
"U  c #F88D20",
"Y  c #F18A22",
"T  c #E39424",
"R  c #EE9425",
"E  c #E09920",
"W  c #E9972B",
"Q  c #EB9728",
"!  c #F29324",
"~  c #F39B22",
"^  c #F99D21",
"/  c #EC9F31",
"(  c #ECA32D",
")  c #E8AB2C",
"_  c #F4A626",
"`  c #F9A423",
"'  c #F5AE26",
"]  c #FCAB25",
"[  c #F5A52A",
"{  c #F8A529",
"}  c #F4AA2B",
"|  c #FFB126",
" . c #FFBB22",
".. c #F7B62C",
"X. c #FDB42A",
"o. c #F5B82D",
"O. c #FEBB2C",
"+. c #EDA634",
"@. c #EFA937",
"#. c #E2A038",
"$. c #EFAC39",
"%. c #E5A133",
"&. c #F4A733",
"*. c #F1AB35",
"=. c #F1AF3D",
"-. c #EBB236",
";. c #ECB73C",
":. c #F6B332",
">. c #F5BF34",
",. c #FABC33",
"<. c #F4B33C",
"1. c #FFC42C",
"2. c #FECB2E",
"3. c #F5C636",
"4. c #FEC533",
"5. c #FECB33",
"6. c #F1C539",
"7. c #F8C738",
"8. c #F5CA3B",
"9. c #FDCD3B",
"0. c #FFD233",
"q. c #FFD937",
"w. c #FFD53D",
"e. c #FFDC3B",
"r. c #FFE13D",
"t. c #EBAC40",
"y. c #EEBC43",
"u. c #F1B442",
"i. c #FABF44",
"p. c #F2BB4C",
"a. c #F8BC4E",
"s. c #F8BE57",
"d. c #EFC14D",
"f. c #F3CF42",
"g. c #F4C54E",
"h. c #F8C74D",
"j. c #FACB4D",
"k. c #F8CA48",
"l. c #F4D241",
"z. c #FDD543",
"x. c #FEDE44",
"c. c #F6D748",
"v. c #FCD74B",
"b. c #F4D844",
"n. c #F4CB52",
"m. c #F9C05E",
"M. c #F9CE59",
"N. c #F7D057",
"B. c #F9D45E",
"V. c #FADD58",
"C. c #FBD450",
"Z. c #FFE542",
"A. c #FFEB45",
"S. c #FDE24D",
"D. c #FFEC4B",
"F. c #FFF24C",
"G. c #FDE652",
"H. c #FBE45A",
"J. c #FDEB5B",
"K. c #FFF255",
"L. c #FFF45C",
"P. c #FBCB6B",
"I. c #F4D960",
"U. c #FADF65",
"Y. c #FBE464",
"T. c #FEEC66",
"R. c #FEE66B",
"E. c #FDEC6C",
"W. c #FFF464",
"Q. c #FFF56B",
"!. c #FEED73",
"~. c #FDED79",
"^. c #FFF573",
"/. c #FFF874",
"(. c #FFF77B",
"). c #FFF87B",
"_. c #FFEE80",
"`. c #FFF680",
"'. c #FFF884",
"]. c #FFF68B",
"[. c #FFF88A",
"{. c #FFF796",
"}. c #FFF996",
"|. c #FFF79C",
" X c #FFF99B",
".X c #FFF7A7",
"XX c #FFF8A4",
"oX c #FFF9AF",
"OX c #FFF9B3",
"+X c #FFF9BD",
"@X c #FFF9C4",
"#X c #FFFACC",
"$X c #FFFBD4",
"%X c #FFFBDB",
"&X c None",
/* pixels */
"&X&X&X&X&X&X&X&X&X&X&X&X|..XOX@X#X#X&X&X&X&X&X&X&X&X&X&X&X&X",
"&X&X&X&X&X&X&X&X&X].}.XXoXOX+X+X@X#X%X%X%X&X&X&X&X&X&X&X&X&X",
"&X&X&X&X&X&X&X(.].{.|. X}.[.'.].{.}..X+X#X%X#X&X&X&X&X&X&X&X",
"&X&X&X&X&X&X(.`.[.'.~.B.p.$.@.@.=.g.U.`.}.OX#X#X&X&X&X&X&X&X",
"&X&X&X&X&XQ./.).~.n.Q ~ :.h.B.B.n.u.} &.B.`.{.OX@X&X&X&X&X&X",
"&X&X&X&XT.^.^.H./ ~ j.!.`.[.[.].[.[._.M.( u.!.[.XXoX&X&X&X&X",
"&X&X&XH.W.Q.V.R &.R.).'.).(.(.(.`.`.(.[.~.@.+.E.).{.|.&X&X&X",
"&X&XN.J.W.H.R &.E.(.(.(.(.(.(.(.(./.(.(.'.~.@.+.Q.(.{.&X&X&X",
"&X&Xv.J.L.} ! T./.(.(.).(.(.`.(.Y.#.I.).(.).T.P y.Q.(.`.&X&X",
"&Xp.v.K.z.e k.Q.^.T.$.g.Y.^.^.d.P 0 n.).(././.g.L H.Q./.&X&X",
"&Xu.v.D.[ P L.Q.Q.T.Q q 7 T W d Z M n./././.Q.T.I ;.L.W.Q.&X",
"&X<.z.x.w -.L.W.W.Q.9.] ` M M  . .B k./.^.Q.Q.Q.*.P K.L.L.&X",
"&X*.z.9.3 l.L.L.L.W.S.Z | A A A A B $.W.Q.Q.W.W.8.6 S.K.K.&X",
"&X+.9.,.2 b.K.K.L.L.G.Z Z Z A A A C 0 %.J.L.L.L.z.8 f.D.D.&X",
"&XW 4...> 8.F.F.K.K...v C C Z Z C C v 9 r c.K.K.z.1 8.Z.x.&X",
"&XP ,...< 6.A.F.F.8.y b V V V C C V N M s -.F.F.3.1 3.w.9.&X",
"&XD } ..: ) Z.Z.e.j h m b b N N V C 2.r.A.F.A.A.' 2 3.5.,.&X",
"&Xw ~ X.4 5 w.e.z.9.w.w.w.,.m m h X.F.F.F.A.r.r.7 7 4.O.X.&X",
"&X7 Y { T + o.0.e.Z.Z.A.D.D.] l f 3.A.r.r.r.r.o.; ~ O.] / &X",
"&X&Xp ~ ' * 5 1.5.5.q.q.e.Z.e.g a q.r.q.q.0.2.8 1 ] ] ` &X&X",
"&X&Xw d ` E X T O.1.1.2.0.0.x.>._ 0.0.2.2.1.r - R ` M ! &X&X",
"&X&XI e k _ S . s | O.O.O.1.1.0.1.1.1.1. .r O p ` M n &X&X&X",
"&X&X&Xa i n ' S   4 M | | | X.X.X. .| B , O w M M g Y &X&X&X",
"&X&X&X&Xj q c _ J % o , u v M ^ n u > o @ d M n h U &X&X&X&X",
"&X&X&X&X&Xj q g ^ } F & $ X o o X X # t M M c g j &X&X&X&X&X",
"&X&X&X&X&X&Xc f f g ^ } ( J K G E x M M m g f m &X&X&X&X&X&X",
"&X&X&X&X&X&X&X} c f q l g m c m m g g f f h &X&X&X&X&X&X&X&X",
"&X&X&X&X&X&X&X&X&X:._ ! j f f f f g m M { &X&X&X&X&X&X&X&X&X",
"&X&X&X&X&X&X&X&X&X&X&X&XP.m.m.a.k.&X&X&X&X&X&X&X&X&X&X&X&X&X"
};
