/* XPM */
static char *result[] = {
/* columns rows colors chars-per-pixel */
"30 29 139 2 ",
"   c #7E3C12",
".  c #8C3B0E",
"X  c #9D440E",
"o  c #884314",
"O  c #914411",
"+  c #914A17",
"@  c #9E4C14",
"#  c #934719",
"$  c #974819",
"%  c #9D4E19",
"&  c #96521C",
"*  c #9D521B",
"=  c #A94F11",
"-  c #A25417",
";  c #AA5515",
":  c #A4541A",
">  c #A85719",
",  c #A4581F",
"<  c #AD5A19",
"1  c #B25B19",
"2  c #B85E1A",
"3  c #B4661F",
"4  c #BE6519",
"5  c #BD6D1C",
"6  c #A45A20",
"7  c #AC6224",
"8  c #B36522",
"9  c #B76B24",
"0  c #BC6E22",
"q  c #B36629",
"w  c #BB6E2A",
"e  c #BF7124",
"r  c #BC712A",
"t  c #C2671A",
"y  c #C16A19",
"u  c #CB6A1A",
"i  c #D3731C",
"p  c #D07C1F",
"a  c #E57514",
"s  c #EC7610",
"d  c #EE7911",
"f  c #E67E18",
"g  c #E97C1B",
"h  c #F07610",
"j  c #F07A11",
"k  c #C06C20",
"l  c #C27526",
"z  c #CA7024",
"x  c #C37826",
"c  c #C4772B",
"v  c #C47C2B",
"b  c #CA7D2B",
"n  c #DC861F",
"m  c #EA801D",
"M  c #EB8E1E",
"N  c #F68312",
"B  c #F58B16",
"V  c #F18B1E",
"C  c #FB9717",
"Z  c #FE9C17",
"A  c #FC9C19",
"S  c #FCA51F",
"D  c #FCA91E",
"F  c #FCB31E",
"G  c #CF842F",
"H  c #C48231",
"J  c #C78934",
"K  c #D28833",
"L  c #CD963C",
"P  c #EB8923",
"I  c #EE942A",
"U  c #DAA13D",
"Y  c #EAA42A",
"T  c #EFA82C",
"R  c #F0A127",
"E  c #F9A226",
"W  c #F1AC2F",
"Q  c #FCBE30",
"!  c #F2BA3B",
"~  c #FFC021",
"^  c #FEC62B",
"/  c #FFCA2A",
"(  c #FCC73D",
")  c #FBCF3E",
"_  c #FFDA37",
"`  c #FED23B",
"'  c #FFDE39",
"]  c #FFE437",
"[  c #FFE23A",
"{  c #D2A246",
"}  c #DCB251",
"|  c #EFB549",
" . c #F3C748",
".. c #F8C54F",
"X. c #F9C84C",
"o. c #FFDF42",
"O. c #F4D358",
"+. c #FFE441",
"@. c #FEE349",
"#. c #FFEE4B",
"$. c #FFF14D",
"%. c #FFE554",
"&. c #FEE758",
"*. c #FEEE59",
"=. c #FFF557",
"-. c #FFF35D",
";. c #EAC562",
":. c #F8DD69",
">. c #F3D875",
",. c #FFEE62",
"<. c #FFF464",
"1. c #FFF46D",
"2. c #FCE379",
"3. c #FAE97A",
"4. c #FFF777",
"5. c #FFF67D",
"6. c #FBEB89",
"7. c #FFF783",
"8. c #FFF885",
"9. c #FFF693",
"0. c #FFF893",
"q. c #FDF09B",
"w. c #FFF89B",
"e. c #FFF6A1",
"r. c #FFF9A2",
"t. c #FFF0A8",
"y. c #FFFAAF",
"u. c #FFF6B4",
"i. c #FFF9B5",
"p. c #FFF1BD",
"a. c #FFFABF",
"s. c #FFF3C1",
"d. c #FFFBC2",
"f. c #FFFBD0",
"g. c #FFFCDE",
"h. c #FFFEEA",
"j. c #FFFEF2",
"k. c #FFFFFE",
"l. c None",
/* pixels */
"l.l.l.l.l.l.l.l.l.l.l.l.| %.%.%.%.%.l.l.l.l.l.l.l.l.l.l.l.l.",
"l.l.l.l.l.l.l.l.l.l.l.6 U 1.1.1.4.1.1.l.l.l.l.l.l.l.l.l.l.l.",
"l.l.l.l.l.l.l.l.l.l.l., H 3.0.0.9.9.9.5.l.l.l.l.l.l.l.l.l.l.",
"l.l.l.l.l.l.l.l.l.l.q : 7 >.i.i.i.u.u.e.l.l.l.l.l.l.l.l.l.l.",
"l.l.l.l.l.l.l.l.l.l.r + & ;.d.g.g.g.g.f.l.l.l.l.l.l.l.l.l.l.",
"l.l.l.l.l.l.l.l.l.l.b 6 , } f.k.k.k.k.h.t.l.l.l.l.l.l.l.l.l.",
"l.l.l.l.l.l.l.l.l.l.r 6 7 { d.k.k.k.k.k.u.l.l.l.l.l.l.l.l.l.",
"l.l.l.l.l.l.l.l.l.l.r , 7 L i.k.k.k.k.k.s.l.l.l.l.l.l.l.l.l.",
"l.l.l.l.l.l.l.l.l.l.9 7 8 J q.k.k.k.k.k.s.l.l.l.l.l.l.l.l.l.",
"l.l.l.l.l.l.l.l.l.K 9 l 0 H 6.h.j.j.j.j.p.l.l.l.l.l.l.l.l.l.",
"l.l.l.l.l.l.l.l.l.G 9 3 3 H 2.a.d.d.a.a.9.l.l.l.l.l.l.l.l.l.",
"l.l.l.l.l.l.l.l.l.b 0 @ - v :.r.w.w.w.w.7.l.l.l.l.l.l.l.l.l.",
"l.l.l.l.l.l.l.l.l.c 5 = - x O.7.8.7.5.4.1.l.l.l.l.l.l.l.l.l.",
"l.l.l.l.l.l.l.l.l.r 5 ; % x  .<.<.<.<.<.*.l.l.l.l.l.l.l.l.l.",
"l.l.l.l.l.l.l.l.l.r 5 = $ l ! #.$.#.#.#.@.l.l.l.l.l.l.l.l.l.",
"l.l.l.l.l.l.l.l.l.r y X # 0 W ' ' ] ' _ ` l.l.l.l.l.l.l.l.l.",
"l.l.l.l.l.l.l.l.l.r t . % 0 R / / / / ^ Q l.l.l.l.l.l.l.l.l.",
"l.l.l.l.l.l.l.l.l.w < O : t M E D D S S E l.l.l.l.l.l.l.l.l.",
"l.l.l.l.l.l.l.l.l.w > < ; t g B B B B B V l.l.l.l.l.l.l.l.l.",
"l.l.l.l.l.l.l.l.l.w > < ; t a d j d j d g l.l.l.l.l.l.l.l.l.",
"l.l.l.l.l.l.l.l.l.l.6 : < t a d h s s s g l.l.l.l.l.l.l.l.l.",
"l.l.l.l.l.l.l.l.l.l.: : 1 u N N N N N N m l.l.l.l.l.l.l.l.l.",
"l.l.l.l.l.l.l.l.l.l.: - 2 i S Z Z Z Z C P l.l.l.l.l.l.l.l.l.",
"l.l.l.l.l.l.l.l.l.l.* - 1 n ~ ~ ~ ~ ~ F I l.l.l.l.l.l.l.l.l.",
"l.l.l.l.l.l.l.l.l.l.*   - I [ [ ] ] ] ^ l.l.l.l.l.l.l.l.l.l.",
"l.l.l.l.l.l.l.l.l.l.6 o 3 ..4.<.-.-.-.) l.l.l.l.l.l.l.l.l.l.",
"l.l.l.l.l.l.l.l.l.l.l.: p >.9.7.5.4.1.X.l.l.l.l.l.l.l.l.l.l.",
"l.l.l.l.l.l.l.l.l.l.l.z T ,.<.<.-.-.&.l.l.l.l.l.l.l.l.l.l.l.",
"l.l.l.l.l.l.l.l.l.l.l.l.( +.+.o.o.o.l.l.l.l.l.l.l.l.l.l.l.l."
};
