/* XPM */
static char *result[] = {
/* columns rows colors chars-per-pixel */
"30 29 136 2 ",
"   c #BB4C0F",
".  c #A54F11",
"X  c #B25316",
"o  c #B35D1D",
"O  c #BD6520",
"+  c #B76820",
"@  c #C25513",
"#  c #C85E17",
"$  c #C75E19",
"%  c #C66317",
"&  c #CB6316",
"*  c #C5651C",
"=  c #CA6418",
"-  c #CE6A1A",
";  c #D46C1B",
":  c #D3711D",
">  c #DB751A",
",  c #D67D1B",
"<  c #E67212",
"1  c #EC7610",
"2  c #EC7A12",
"3  c #EC7E19",
"4  c #F07910",
"5  c #CA7427",
"6  c #DC7720",
"7  c #D57A25",
"8  c #D77E2A",
"9  c #D37C31",
"0  c #D7961E",
"q  c #EE8113",
"w  c #E1801B",
"e  c #ED851B",
"r  c #F88E16",
"t  c #F38D18",
"y  c #F7951B",
"u  c #F49C1F",
"i  c #FEB21E",
"p  c #DA8424",
"a  c #DC8B24",
"s  c #DB832C",
"d  c #DD8A2D",
"f  c #D79227",
"g  c #DE952E",
"h  c #DE9E2B",
"j  c #DC8C31",
"k  c #E28422",
"l  c #E08926",
"z  c #E38D2C",
"x  c #E3932C",
"c  c #F39521",
"v  c #E08B31",
"b  c #E39432",
"n  c #E39A32",
"m  c #E0973E",
"M  c #E49F3C",
"N  c #E6A028",
"B  c #FBA720",
"V  c #FAA922",
"C  c #F6A728",
"Z  c #F8AC2B",
"A  c #EEB82C",
"S  c #FEB524",
"D  c #FFBD2A",
"F  c #E7A333",
"G  c #E6AB35",
"H  c #EBAA31",
"J  c #E6A53C",
"K  c #EEA339",
"L  c #E7A93B",
"P  c #EBAC38",
"I  c #ECB131",
"U  c #F8BB33",
"Y  c #FBC12E",
"T  c #FFC92F",
"R  c #F9C539",
"E  c #FFDC35",
"W  c #FFD23A",
"Q  c #E29C43",
"!  c #EAAF44",
"~  c #E4A949",
"^  c #EBB752",
"/  c #F0BD57",
"(  c #F6C141",
")  c #FACA42",
"_  c #FBD242",
"`  c #FFDE41",
"'  c #FDDB4B",
"]  c #F4C555",
"[  c #F6C958",
"{  c #FFE643",
"}  c #FFEC4B",
"|  c #FCE255",
" . c #FFEA56",
".. c #FEE55A",
"X. c #FFF155",
"o. c #FFF55B",
"O. c #F5CD62",
"+. c #F8DE6C",
"@. c #F5D775",
"#. c #F9DB72",
"$. c #F3DA7C",
"%. c #FDE367",
"&. c #FCE961",
"*. c #FCED6C",
"=. c #FFF066",
"-. c #FFF66D",
";. c #FDEB75",
":. c #F5E07E",
">. c #F9E67C",
",. c #FDEA7A",
"<. c #FFF674",
"1. c #FFF679",
"2. c #FDEC87",
"3. c #FFF783",
"4. c #FFF881",
"5. c #FFF78A",
"6. c #FFF98C",
"7. c #FEE49B",
"8. c #FDED9F",
"9. c #FFF794",
"0. c #FFF894",
"q. c #FFF79A",
"w. c #FFF89A",
"e. c #FDEAA6",
"r. c #FFF7A1",
"t. c #FFF8A4",
"y. c #FFF8AB",
"u. c #FEF1B4",
"i. c #FFFAB1",
"p. c #FFF4B9",
"a. c #FFFBBF",
"s. c #FFF5C1",
"d. c #FFF9C9",
"f. c #FFFEDE",
"g. c #FFFEE1",
"h. c None",
/* pixels */
"h.h.h.h.h.h.h.h.h.h.h... . . . . .' h.h.h.h.h.h.h.h.h.h.h.h.",
"h.h.h.h.h.h.h.h.h.h.+.<.<.<.<.<.<.( b h.h.h.h.h.h.h.h.h.h.h.",
"h.h.h.h.h.h.h.h.h.h.2.9.6.9.9.9.,.n 8 h.h.h.h.h.h.h.h.h.h.h.",
"h.h.h.h.h.h.h.h.h.@.9.t.t.t.t.i.#.+ o h.h.h.h.h.h.h.h.h.h.h.",
"h.h.h.h.h.h.h.h.h.$.9.q.9.q.q.s.O.f O 9 h.h.h.h.h.h.h.h.h.h.",
"h.h.h.h.h.h.h.h.h.:.q.q.q.q.t.d.[ P 8 8 h.h.h.h.h.h.h.h.h.h.",
"h.h.h.h.h.h.h.h.h.>.w.q.q.w.y.s.] b 8 l h.h.h.h.h.h.h.h.h.h.",
"h.h.h.h.h.h.h.h.h.,.0.0.9.0.y.u./ j 8 z h.h.h.h.h.h.h.h.h.h.",
"h.h.h.h.h.h.h.h.h.,.6.6.6.6.r.8./ s d n h.h.h.h.h.h.h.h.h.h.",
"h.h.h.h.h.h.h.h.h.;.4.4.4.4.0.2.^ 5 N n h.h.h.h.h.h.h.h.h.h.",
"h.h.h.h.h.h.h.h.h.*.1.1.1.<.6.,.! o h n h.h.h.h.h.h.h.h.h.h.",
"h.h.h.h.h.h.h.h.h.&.-.-.-.-.4.%.L % n b h.h.h.h.h.h.h.h.h.h.",
"h.h.h.h.h.h.h.h.h.| o.o.o.o.-.| F & p b h.h.h.h.h.h.h.h.h.h.",
"h.h.h.h.h.h.h.h.~ _ } } } } X.' n $ @ v h.h.h.h.h.h.h.h.h.h.",
"h.h.h.h.h.h.h.h.Q R W W W W ` _ x %   d h.h.h.h.h.h.h.h.h.h.",
"h.h.h.h.h.h.h.h.m Z D D D D T R z $ , F h.h.h.h.h.h.h.h.h.h.",
"h.h.h.h.h.h.h.h.h.c V B V B S U a - A F h.h.h.h.h.h.h.h.h.h.",
"h.h.h.h.h.h.h.h.h.e t y t t y C w w I b h.h.h.h.h.h.h.h.h.h.",
"h.h.h.h.h.h.h.h.h.< 2 2 2 2 q c k l H n h.h.h.h.h.h.h.h.h.h.",
"h.h.h.h.h.h.h.h.h.< < < < < 1 e 6 p F M h.h.h.h.h.h.h.h.h.h.",
"h.h.h.h.h.h.h.h.h.3 4 1 1 4 1 3 ; 7 g J h.h.h.h.h.h.h.h.h.h.",
"h.h.h.h.h.h.h.h.h.y r r r r r 3 ; - 7 L h.h.h.h.h.h.h.h.h.h.",
"h.h.h.h.h.h.h.h.h.V i S i i i t - % p G h.h.h.h.h.h.h.h.h.h.",
"h.h.h.h.h.h.h.h.h.Y E E E E E V ; X a F h.h.h.h.h.h.h.h.h.h.",
"h.h.h.h.h.h.h.h.h._ &.<.<.-.-.) > . 0 g h.h.h.h.h.h.h.h.h.h.",
"h.h.h.h.h.h.h.h.h.h.p.g.f.g.g.7.k = , h.h.h.h.h.h.h.h.h.h.h.",
"h.h.h.h.h.h.h.h.h.h.e.g.g.g.g.s.K = * h.h.h.h.h.h.h.h.h.h.h.",
"h.h.h.h.h.h.h.h.h.h.%.1.1.1.1.<.) : h.h.h.h.h.h.h.h.h.h.h.h.",
"h.h.h.h.h.h.h.h.h.h.h.{ { { { { W h.h.h.h.h.h.h.h.h.h.h.h.h."
};
