/* XPM */
static char *result[] = {
/* columns rows colors chars-per-pixel */
"30 29 169 2 ",
"   c #B95812",
".  c #BC6614",
"X  c #C05913",
"o  c #C36112",
"O  c #C9601B",
"+  c #D66B17",
"@  c #DF6E11",
"#  c #D5721B",
"$  c #DA781C",
"%  c #E5720E",
"&  c #E46915",
"*  c #EA6D15",
"=  c #E47412",
"-  c #E47813",
";  c #E87A1A",
":  c #F27616",
">  c #F67A14",
",  c #F87F17",
"<  c #F27C1C",
"1  c #CE7A28",
"2  c #D67821",
"3  c #DC7A24",
"4  c #EE8112",
"5  c #E68119",
"6  c #EA841B",
"7  c #ED8B19",
"8  c #F28213",
"9  c #FC8116",
"0  c #F78118",
"q  c #F98318",
"w  c #F48C19",
"e  c #F88A1C",
"r  c #FB9717",
"t  c #F6901E",
"y  c #FC9A19",
"u  c #FBA419",
"i  c #FFB51C",
"p  c #DD8027",
"a  c #D3872C",
"s  c #D28F2E",
"d  c #DB882D",
"f  c #DE9024",
"g  c #D89F21",
"h  c #E28522",
"j  c #EA8622",
"k  c #E58921",
"l  c #ED8D24",
"z  c #EA862A",
"x  c #EC8D29",
"c  c #F28E25",
"v  c #ED9424",
"b  c #EC952C",
"n  c #EE9C2B",
"m  c #F49724",
"M  c #FA9423",
"N  c #F49B22",
"B  c #FB9B23",
"V  c #F39E2B",
"C  c #F89B28",
"Z  c #E09435",
"A  c #EE9735",
"S  c #E59830",
"D  c #DBA02F",
"F  c #EFA02A",
"G  c #F5A424",
"H  c #FAA726",
"J  c #F9A924",
"K  c #F2A32C",
"L  c #FCA62A",
"P  c #FCAC2C",
"I  c #F7B423",
"U  c #FBB627",
"Y  c #F7B62E",
"T  c #FCBE2C",
"R  c #E5A131",
"E  c #EBA33F",
"W  c #ECAC39",
"Q  c #F3A635",
"!  c #FAA435",
"~  c #F4AD34",
"^  c #FAAD32",
"/  c #F4AD3B",
"(  c #EBB238",
")  c #FCB433",
"_  c #FDBB34",
"`  c #F7B53B",
"'  c #F9B43A",
"]  c #F3BC3B",
"[  c #FCBE39",
"{  c #FFCD27",
"}  c #FFC22D",
"|  c #FFCB29",
" . c #FFD026",
".. c #FEC335",
"X. c #FDCF36",
"o. c #FEC43B",
"O. c #FECB3C",
"+. c #FFD43D",
"@. c #FFDC3B",
"#. c #FFE735",
"$. c #FFEA36",
"%. c #FFE03F",
"&. c #FFEC3A",
"*. c #E4AF40",
"=. c #ECAF49",
"-. c #E6B543",
";. c #E9B342",
":. c #E8BD46",
">. c #E8BF48",
",. c #F5BB44",
"<. c #F1BE4E",
"1. c #FAB94B",
"2. c #EFC94B",
"3. c #FDC543",
"4. c #FDCC43",
"5. c #FDC44A",
"6. c #F4CA48",
"7. c #FCCF49",
"8. c #FFD443",
"9. c #FFDC43",
"0. c #FED44B",
"q. c #FEDC4C",
"w. c #F5CB55",
"e. c #FAC45B",
"r. c #F1CC5F",
"t. c #FBD552",
"y. c #FEDC52",
"u. c #FCD459",
"i. c #FFDC5C",
"p. c #FFE144",
"a. c #FFE34B",
"s. c #FFEA4C",
"d. c #FEE454",
"f. c #FFED54",
"g. c #FFE45C",
"h. c #FFEB5B",
"j. c #FFF155",
"k. c #FFF45C",
"l. c #FFD96C",
"z. c #F8D076",
"x. c #FDDA79",
"c. c #FEE467",
"v. c #FFED63",
"b. c #FCE66C",
"n. c #FEEE6A",
"m. c #FFF363",
"M. c #FFF46C",
"N. c #FBE174",
"B. c #FFEC7A",
"V. c #FFF673",
"C. c #FFF67C",
"Z. c #FFF87F",
"A. c #FEDF83",
"S. c #FEE984",
"D. c #FEEE8A",
"F. c #FFF484",
"G. c #FFF58C",
"H. c #FFF88F",
"J. c #FFEE90",
"K. c #FEEC9C",
"L. c #FFF793",
"P. c #FFF895",
"I. c #FFF899",
"U. c #FFF9A3",
"Y. c #FFF9AE",
"T. c #FFFAB4",
"R. c #FFFAC3",
"E. c #FFFBCF",
"W. c None",
/* pixels */
"W.W.W.W.W.W.W.W.W.W.W.d.a.q.q.g.M.M.M.W.W.W.W.W.W.W.W.W.W.W.",
"W.W.W.W.W.W.W.W.W.W.m.m.m.m.C.G.F.M.M.m.W.W.W.W.W.W.W.W.W.W.",
"W.W.W.W.W.W.W.W.W.F.C.C.C.I.Y.F.M.v.v.m.h.W.W.W.W.W.W.W.W.W.",
"W.W.W.W.W.W.W.W.D.G.G.G.I.R.L.n.:.s a ;.g.h.W.W.W.W.W.W.W.W.",
"W.W.W.W.W.W.W.D.L.P.P.P.T.T.M.>.D ( R 2 S d.g.W.W.W.W.W.W.W.",
"W.W.W.W.W.W.W.F.G.G.G.I.E.G.u.r.n.v.m.t.h / g.W.W.W.W.W.W.W.",
"W.W.W.W.W.W.N.V.V.V.V.U.T.n.x.G.v.v.h.v.t.l 0.i.W.W.W.W.W.W.",
"W.W.W.W.W.W.b.M.V.V.V.Y.L.c.K.n.h.h.h.h.h.` ) l.W.W.W.W.W.W.",
"W.W.W.W.W.W.c.M.M.M.V.U.V.S.G.h.h.h.d.6.h.y.^ y.W.W.W.W.W.W.",
"W.W.W.W.W.W.h.k.m.k.M.H.m.J.n.2.-.g.W ] h.g.) 0.W.W.W.W.W.W.",
"W.W.W.W.W.w.d.d.j.f.M.F.h.B.v.:.X 1 ; ..h.h.O.8.u.W.W.W.W.W.",
"W.W.W.W.W.2.0.q.q.p.n.M.d.v.g.0.< * > ..f.d.8.+.t.W.W.W.W.W.",
"W.W.W.W.W.=.o.O.O.O.g.m.a.h.d.q.M , , L q.d.0.@.t.W.W.W.W.W.",
"W.W.W.W.W.E ~ ~ ~ _ q.f.q.d.a.q.B 9 9 * F y.9.8.0.W.W.W.W.W.",
"W.W.W.W.W.Z b b n F X.s.O.q.q.4.w q q : & [ 8.9.0.W.W.W.W.W.",
"W.W.W.W.W.a h k k v Y p...+.q.^ 0 q 0 q N 7.8.9.0.W.W.W.W.W.",
"W.W.W.W.W.3 6 6 6 7 G +.T ..8.M , 0 e o.a.q.8.p.4.W.W.W.W.W.",
"W.W.W.W.W.3 @ - - - 7 } _ P O.T U e M c.8.8.+.d.5.W.W.W.W.W.",
"W.W.W.W.W.3 + = % @ - J ) m O.+.8.L L a.+.4.0.i.,.W.W.W.W.W.",
"W.W.W.W.W.W.= = % % % w ) 6 ) ..O._ [ 0.O.o.l.u.W.W.W.W.W.W.",
"W.W.W.W.W.W.w 8 8 8 8 4 P j v o.o.o.0.8.o.o.A.5.W.W.W.W.W.W.",
"W.W.W.W.W.W.B y y y r 8 B V + ^ _ ..3.o...e.x.' W.W.W.W.W.W.",
"W.W.W.W.W.W.W.i i i i u w P # $ ) _ [ _ Q z.5.Q W.W.W.W.W.W.",
"W.W.W.W.W.W.W.|  .{  .{ r B K X # K K f ;.u.^ W.W.W.W.W.W.W.",
"W.W.W.W.W.W.W.@.#.$.$.&.X.t L v o   . g O.) A W.W.W.W.W.W.W.",
"W.W.W.W.W.W.W.W.f.k.k.k.M.1.w L H G I T P b W.W.W.W.W.W.W.W.",
"W.W.W.W.W.W.W.W.W.M.V.C.F.G./ t C L H C x W.W.W.W.W.W.W.W.W.",
"W.W.W.W.W.W.W.W.W.W.k.k.f.k.d._ m c c z W.W.W.W.W.W.W.W.W.W.",
"W.W.W.W.W.W.W.W.W.W.W.W.9.@.%.%.o.! W.W.W.W.W.W.W.W.W.W.W.W."
};
