/* XPM */
static char *result[] = {
/* columns rows colors chars-per-pixel */
"30 29 197 2 ",
"   c #BA5A0A",
".  c #BE600C",
"X  c #C4560A",
"o  c #CB570D",
"O  c #EC5907",
"+  c #E05909",
"@  c #C0610A",
"#  c #D0680F",
"$  c #C46E14",
"%  c #DD6A13",
"&  c #DA6514",
"*  c #D27D11",
"=  c #F16507",
"-  c #F56907",
";  c #FF6F07",
":  c #F16909",
">  c #FC7207",
",  c #FF7B07",
"<  c #FE7408",
"1  c #F67C0F",
"2  c #FF7B09",
"3  c #E37012",
"4  c #E17916",
"5  c #EC7F1B",
"6  c #D77926",
"7  c #D67C29",
"8  c #D87D29",
"9  c #D27F32",
"0  c #DA8719",
"q  c #EF8212",
"w  c #E38D16",
"e  c #E98A17",
"r  c #E6861A",
"t  c #EC821A",
"y  c #EC8B19",
"u  c #E48317",
"i  c #F08016",
"p  c #FF8412",
"a  c #F68D15",
"s  c #F88F16",
"d  c #F58E1F",
"f  c #F98D1B",
"g  c #EF961C",
"h  c #EF9F1D",
"j  c #F59015",
"k  c #FA9316",
"l  c #F6911B",
"z  c #F89419",
"x  c #FA9C1B",
"c  c #FA9B17",
"v  c #F5A51D",
"b  c #FDA31A",
"n  c #F1A81C",
"m  c #FFAA1E",
"M  c #FCA217",
"N  c #FDB21C",
"B  c #F2B71E",
"V  c #CF8323",
"C  c #D7822E",
"Z  c #D8842F",
"A  c #DE892E",
"S  c #DB8923",
"D  c #DA9C2B",
"F  c #D68434",
"G  c #D98B37",
"H  c #DE9035",
"J  c #E08126",
"K  c #EE8921",
"L  c #E1852A",
"P  c #F68F20",
"I  c #E4952B",
"U  c #EF922A",
"Y  c #E49B28",
"T  c #EC9F2F",
"R  c #F69725",
"E  c #F29B22",
"W  c #FA9C24",
"Q  c #F89128",
"!  c #E89835",
"~  c #E89E3B",
"^  c #E3963A",
"/  c #EDAD29",
"(  c #FDA321",
")  c #FBA920",
"_  c #F6A02C",
"`  c #F9A22D",
"'  c #F4A321",
"]  c #F5B324",
"[  c #FEB324",
"{  c #FDBB26",
"}  c #F6B32B",
"|  c #FCB22B",
" . c #FEBB2A",
".. c #EFA63D",
"X. c #E9AE3C",
"o. c #E5A635",
"O. c #F7A131",
"+. c #F5AB38",
"@. c #F8A435",
"#. c #E9B13D",
"$. c #FCB433",
"%. c #FCBC31",
"&. c #F5B73B",
"*. c #FBBF3C",
"=. c #F2B234",
"-. c #FCC226",
";. c #FEC32B",
":. c #FFCB2B",
">. c #FFD32D",
",. c #FDC434",
"<. c #FDCC33",
"1. c #FEC439",
"2. c #FECE39",
"3. c #FED333",
"4. c #FFDA34",
"5. c #FCD13A",
"6. c #FEDD3C",
"7. c #FFE237",
"8. c #FFE33A",
"9. c #FFE93E",
"0. c #E4A042",
"q. c #EDA641",
"w. c #EAAF41",
"e. c #ECA948",
"r. c #F0A843",
"t. c #EDBC43",
"y. c #F6B443",
"u. c #F0B847",
"i. c #F6B349",
"p. c #F8BE4E",
"a. c #F6BA4D",
"s. c #EDC84B",
"d. c #F4C246",
"f. c #FBC243",
"g. c #F5C947",
"h. c #FCCC43",
"j. c #FFC34B",
"k. c #F5CB4C",
"l. c #F9CB4B",
"z. c #FDD442",
"x. c #FDDC42",
"c. c #FDD34B",
"v. c #FCDB4B",
"b. c #EDC457",
"n. c #F7C253",
"m. c #F9C75A",
"M. c #FCCB59",
"N. c #FCC855",
"B. c #FBD353",
"V. c #F7DB52",
"C. c #FCDD54",
"Z. c #F5D558",
"A. c #FFD55B",
"S. c #FED95E",
"D. c #F1D252",
"F. c #FFE340",
"G. c #FFEA43",
"H. c #FFE44E",
"J. c #FFEC4C",
"K. c #FFF24C",
"L. c #FFE555",
"P. c #FFEC54",
"I. c #FEE459",
"U. c #FFEC5C",
"Y. c #FFF454",
"T. c #FFF35B",
"R. c #FEDE62",
"E. c #F5D268",
"W. c #FADB6E",
"Q. c #FDE362",
"!. c #FEEB65",
"~. c #FEE468",
"^. c #FFEC69",
"/. c #FFF363",
"(. c #FFF56B",
"). c #FFF86D",
"_. c #F9E07E",
"`. c #FFF474",
"'. c #FFF972",
"]. c #FFF67B",
"[. c #FFF97C",
"{. c #FBDB82",
"}. c #FFEA8E",
"|. c #FFF683",
" X c #FFF984",
".X c #FFF58C",
"XX c #FFF88B",
"oX c #FDED97",
"OX c #FFF693",
"+X c #FFF895",
"@X c #FFF899",
"#X c #FFF9AB",
"$X c #FFFAB7",
"%X c #FEF3BE",
"&X c #FFF9BB",
"*X c #FFFCC9",
"=X c None",
/* pixels */
"=X=X=X=X=X=X=X=X=X=X=Xh.f.m.{.oXOXOXOX=X=X=X=X=X=X=X=X=X=X=X",
"=X=X=X=X=X=X=X=X=XI.v.I.}.%X$X@XXX|.|.|.|.=X=X=X=X=X=X=X=X=X",
"=X=X=X=X=X=X=X!.U.U.`.*X*X@X[.'.(.(.).'.'.[.|.=X=X=X=X=X=X=X",
"=X=X=X=X=X=X!.!./.[.*X&X|.'.Z.X.I I o.d.U.(.`.].=X=X=X=X=X=X",
"=X=X=X=X=X^.(.(.`.&X$X[.Q.#.o.t.k.g.=.K K l./.(.`.=X=X=X=X=X",
"=X=X=X=X=X~.^.^.@X$X|.Q.w.E.|.[.'.).).!.y.5 *.(.(.=X=X=X=X=X",
"=X=X=X=XR.Q.!.`.#XXX/.u._. X).).(.).).(.(.l.t h.(.(.=X=X=X=X",
"=X=X=X=XS.R.Q.|.+X'.l.W. X/.(.(.(.(.(./.(.(.d.P H./.=X=X=X=X",
"=X=X=Xm.A.A.Q..X[.I.g.`.(.(.(.(.(.(.D.t./././.W %.T.(.=X=X=X",
"=X=X=Xn.M.M.~.XX(.z.L.(./.d.X.V.!.s.4 } /././.c.R J.!.=X=X=X",
"=X=X=Xa.p.N.~.'.T.<././.(.&.+ # S 3 >  ./.T.T.P.W z.T.=X=X=X",
"=X=Xe.y.i.a.I./.H.5./.T.T.x.2 - = > 2  .T.T.T.T. .,.Y.I.=X=X",
"=X=X0.q.q.r.I.T.x.,.Y.Y.Y.J.k , 2 2 2 x v.Y.Y.Y.1. .K.L.=X=X",
"=X=X^ ~ ~ ..z.K.5.,.K.K.Y.J.x , 2 2 2 : 4 x.Y.K.5.| J.C.=X=X",
"=X=XG H ^ ! ,.J.,.| K.K.K.5.1 , , , , > O t 6.K.5.| J.C.=X=X",
"=X=XF C F A } 8.;.v G.G.G.R > , < , < , l +.v.K.:. .G.v.=X=X",
"=X=XF 7 7 6 E 5.;.f 4.G.,.1 < , < > p j.^.T.J.9.;.<.F.c.=X=X",
"=X=XF 7 7 7 r ;.<.5 ;.8.3.:.>.-.2 ; ( U.G.9.8.8.] 6.6.=X=X=X",
"=X=X=XL J S 4 ) ;.y g 4.6.7.7.7.) >  .8.7.7.7.3.} 8.5.=X=X=X",
"=X=X=XU U U t a  .' % -.>.3.4.4.3.k 5.7.4.4.4.] ,.4.,.=X=X=X",
"=X=X=X@.O.W R i m [ % u -.:.>.>.>.:.8.>.>.>.-./ 6.;.$.=X=X=X",
"=X=X=X=X$.$.$.l j [ E o g ;.-.:.:.>.3.:.:.-.Y D.<.| =X=X=X=X",
"=X=X=X=X*.;.,.[ a c [ w X y N -.;.;.;.;.] S b.c.[ O.=X=X=X=X",
"=X=X=X=X=X5.<.<.[ j b N w X # e v v h 0 V s.c.[ _ =X=X=X=X=X",
"=X=X=X=X=X=X4.4.3.{ s x m n 0 @     $ D g.1.m W =X=X=X=X=X=X",
"=X=X=X=X=X=Xx.6.8.8.,.z k m m B B B -.;.[ M l =X=X=X=X=X=X=X",
"=X=X=X=X=X=X=X=X8.8.G.B.W z k x M M M c k Q =X=X=X=X=X=X=X=X",
"=X=X=X=X=X=X=X=X=X8.4.6.v.1.( z k k f d Q =X=X=X=X=X=X=X=X=X",
"=X=X=X=X=X=X=X=X=X=X=X=X5.z.z.,.| =X=X=X=X=X=X=X=X=X=X=X=X=X"
};
