/* XPM */
static char *result[] = {
/* columns rows colors chars-per-pixel */
"30 29 193 2 ",
"   c #8F4113",
".  c #914113",
"X  c #9B4413",
"o  c #954914",
"O  c #A0400E",
"+  c #A84610",
"@  c #A94E15",
"#  c #A25718",
"$  c #AA5D1E",
"%  c #BB5819",
"&  c #AD601A",
"*  c #B2611F",
"=  c #AA6520",
"-  c #C45914",
";  c #CC6E1F",
":  c #D16C1B",
">  c #DF6919",
",  c #C6741F",
"<  c #D7721D",
"1  c #DB791D",
"2  c #E27013",
"3  c #E97411",
"4  c #ED7B12",
"5  c #E5741C",
"6  c #EB7419",
"7  c #E47B18",
"8  c #F07F17",
"9  c #F27B1D",
"0  c #CC6F22",
"q  c #D76F20",
"w  c #C77126",
"e  c #CC7924",
"r  c #CB7E2A",
"t  c #D27424",
"y  c #DC7627",
"u  c #D47D28",
"i  c #E27D28",
"p  c #E37D26",
"a  c #E9841B",
"s  c #E98316",
"d  c #F08B1A",
"f  c #FA9D1E",
"g  c #FAA91D",
"h  c #C2862F",
"j  c #CA842C",
"k  c #D9852D",
"l  c #D58B2E",
"z  c #DB8B2F",
"x  c #D28731",
"c  c #DA8730",
"v  c #D58D32",
"b  c #DC8931",
"n  c #D59234",
"m  c #DA9435",
"M  c #D79338",
"N  c #D8973A",
"B  c #D79D3C",
"V  c #DD9C3C",
"C  c #E38325",
"Z  c #EC8324",
"A  c #EB8B23",
"S  c #E78729",
"D  c #EA8729",
"F  c #E7882C",
"G  c #EB8D2B",
"H  c #E38C24",
"J  c #F48426",
"K  c #F58C27",
"L  c #F28328",
"P  c #F68B29",
"I  c #ED9425",
"U  c #EB912D",
"Y  c #E4992C",
"T  c #F29423",
"R  c #F29B23",
"E  c #F59C2B",
"W  c #F89929",
"Q  c #F99422",
"!  c #EA8A31",
"~  c #E69334",
"^  c #EC9432",
"/  c #E49837",
"(  c #ED9A37",
")  c #E49F3B",
"_  c #ED9C3A",
"`  c #E9943A",
"'  c #F49431",
"]  c #F49B31",
"[  c #F19C38",
"{  c #DFA735",
"}  c #FAAF26",
"|  c #F4A42D",
" . c #FEA52A",
".. c #FFB127",
"X. c #FFB12A",
"o. c #FDBC2B",
"O. c #ECAB34",
"+. c #E3A43C",
"@. c #ECA33C",
"#. c #E0A93D",
"$. c #EAAC3C",
"%. c #F6A331",
"&. c #F8A831",
"*. c #F2A13A",
"=. c #F5AC3B",
"-. c #EDB23A",
";. c #F5B735",
":. c #F6B13C",
">. c #FAB239",
",. c #FBB739",
"<. c #FFC027",
"1. c #FFC62C",
"2. c #FFCA2D",
"3. c #FFC630",
"4. c #FDCC37",
"5. c #FFCA3C",
"6. c #FED13E",
"7. c #DEA143",
"8. c #E4A542",
"9. c #EFA642",
"0. c #E3A944",
"q. c #E7A44E",
"w. c #E6AF4A",
"e. c #EEAE49",
"r. c #F4AD42",
"t. c #EDB546",
"y. c #EFBA43",
"u. c #E7B34A",
"i. c #EDB44B",
"p. c #F6B343",
"a. c #F9B444",
"s. c #F4BB43",
"d. c #FAB945",
"f. c #FBBB49",
"g. c #F2B84C",
"h. c #EEB757",
"j. c #EABD50",
"k. c #EEBD58",
"l. c #E5BA52",
"z. c #F9BA55",
"x. c #EAC34B",
"c. c #FCC242",
"v. c #FFC941",
"b. c #F6C24E",
"n. c #FDC44C",
"m. c #FECB4D",
"M. c #FFDC47",
"N. c #FED54D",
"B. c #FFDE4D",
"V. c #F3C450",
"C. c #F8C452",
"Z. c #FECC52",
"A. c #F3C35A",
"S. c #FACB59",
"D. c #F4CC58",
"F. c #FFD254",
"G. c #FDDA54",
"H. c #FCD45A",
"J. c #FEDA5C",
"K. c #FFE14C",
"L. c #FFED57",
"P. c #FEE35C",
"I. c #FFEB5B",
"U. c #FFF255",
"Y. c #FFF45C",
"T. c #EDCB60",
"R. c #F7CB61",
"E. c #F4D263",
"W. c #FCDC63",
"Q. c #F7DC69",
"!. c #FCDD69",
"~. c #F6DA65",
"^. c #FFE464",
"/. c #FFEB64",
"(. c #FEE56B",
"). c #FFEB6C",
"_. c #FFF464",
"`. c #FFF36D",
"'. c #FDE471",
"]. c #FFEE72",
"[. c #FFEF78",
"{. c #FFF274",
"}. c #FFF57B",
"|. c #FFF783",
" X c #FFF789",
".X c #FFF696",
"XX c #FFF895",
"oX c #FFF89C",
"OX c #FFF8A0",
"+X c #FFF9AC",
"@X c #FFF9B5",
"#X c #FFFABB",
"$X c None",
/* pixels */
"$X$X$X$X$X$X$X$X$X$X$X{.|.}.[.(.G.B.K.$X$X$X$X$X$X$X$X$X$X$X",
"$X$X$X$X$X$X$X$X$X'.[.|.}.|.}.}.}.{._.U.Y.$X$X$X$X$X$X$X$X$X",
"$X$X$X$X$X$X$X$X'.[.{.{.'.].{.}.{.{. X|._._._.$X$X$X$X$X$X$X",
"$X$X$X$X$X$XR.!.].!.0.c e e n l.'.{.`..XoX{.}.`.$X$X$X$X$X$X",
"$X$X$X$X$X$X!.'.j.t w M 7.0.m , j E.{.`.+X.X}.}.}.$X$X$X$X$X",
"$X$X$X$X$XE.(.t.: V Q.].}.{.{.P.{ r T.).}.#XXX|.|.$X$X$X$X$X",
"$X$X$X$Xk.!.b.< u.].{.].].{.{.{.`.x.v ~._..X@X X|.|.$X$X$X$X",
"$X$X$X$XR.W.S @.].].].{.].{.].).{.`.j.7.).).@X.X X|.|.$X$X$X",
"$X$X$Xh.!.:.C !.].'.{.{.{.^.@.u.{.].).0.T.I..XOX|.|.}.$X$X$X",
"$X$X$Xk.J.I e.].^.#.7.E.~.~ > e.].{.{.E.w.P.]..X}.}.}.$X$X$X",
"$X$X$XA.Z.A E.).).y.t t t 5 J g.].].{.(.0.H.P.|.}.}.{.{.$X$X",
"$X$X$XS.s.G ^.(.).G.P L L P J r.).).)./.$.V.N.{.`._._.).$X$X",
"$X$X$XS.;.) ^.^.(.I.] P P P P / ~.)./.^.-.t.m.L._.Y._._.$X$X",
"$X$X$XS.| +.W.^.^.G.W P P P P i N J.^.P.O.7.5.B.U.Y.L.L.$X$X",
"$X$Xq.S.O.+.J.^.J.E 9 P P P P J y n H.J.Y V ,.4.K.B.B.N.$X$X",
"$X$X$XC.-.V J.J.c.6 J P P P P J p x D.F.H +.=.o.5.v.v.c.$X$X",
"$X$X$Xf.s.n F.F.T 6 J J J P L ^ s.S.J.n.1 @.%.} ,.>.=.r.$X$X",
"$X$X$Xg.m.l b.F.,.| &.:.' J G C.F.F.Z.=.: 9.I f E ] E *.$X$X",
"$X$X$X9.m.B +.Z.Z.F.F.F.z.L ( Z.Z.Z.n.C ; @.a d G I G $X$X$X",
"$X$X$X_ f.u.j n.Z.m.m.m.S.` =.Z.n.f.=.- b U 7 a S S F $X$X$X",
"$X$X$X$Xr.f.h m n.n.n.f.Z.i.r.f.f.p.; % ( 7 3 Z D D ! $X$X$X",
"$X$X$X$X_ p.{ = ) f.f.f.f.a.f.a.r.u + k G 2 s P P ' $X$X$X$X",
"$X$X$X$X$X[ p.h # v p.a.a.p.p.[ 0 O w ( 5 8 Q W W ] $X$X$X$X",
"$X$X$X$X$X[ *.=.e X $ r c k w @ X w ^ C 4 f  . . .$X$X$X$X$X",
"$X$X$X$X$X$X[ _ *.k $ o . . X * c ( Z s g ....X.$X$X$X$X$X$X",
"$X$X$X$X$X$X$X' U [ ( U v F / ( ^ Z d o.<.o.o.$X$X$X$X$X$X$X",
"$X$X$X$X$X$X$X$X] I G G U U G Z A =.M.2.1.1.$X$X$X$X$X$X$X$X",
"$X$X$X$X$X$X$X$X$X$X| R R R | d.Z.N.2.2.$X$X$X$X$X$X$X$X$X$X",
"$X$X$X$X$X$X$X$X$X$X$X$X$X$X$X$X$X$X$X$X$X$X$X$X$X$X$X$X$X$X"
};
