/* XPM */
static char *_4545e751cea4c93a5c08852be9db58cfJBbJV65QUECsPBT[] = {
/* columns rows colors chars-per-pixel */
"59 25 128 2 ",
"   c None",
".  c #001E1D",
"X  c #00201F",
"o  c #0A1F24",
"O  c #002422",
"+  c #0A2026",
"@  c #002826",
"#  c #002728",
"$  c #092729",
"%  c #012C2B",
"&  c #0B2E2F",
"*  c #11252C",
"=  c #13282F",
"-  c #022F30",
";  c #0C2E31",
":  c #132F31",
">  c #023334",
",  c #0C3235",
"<  c #023739",
"1  c #043A3C",
"2  c #133033",
"3  c #193037",
"4  c #14363D",
"5  c #1A343A",
"6  c #14383F",
"7  c #1E383E",
"8  c #223235",
"9  c #233439",
"0  c #0D3E42",
"q  c #143740",
"w  c #143C43",
"e  c #1A3A41",
"r  c #213E45",
"t  c #2F3D41",
"y  c #313F43",
"u  c #114046",
"i  c #114148",
"p  c #1C434B",
"a  c #1F4250",
"s  c #1D4952",
"d  c #1D525B",
"f  c #234045",
"g  c #24434B",
"h  c #354247",
"j  c #3C494E",
"k  c #224652",
"l  c #234957",
"z  c #2A4F56",
"x  c #254E5C",
"c  c #294F58",
"v  c #3E4C51",
"b  c #27515F",
"n  c #2A5765",
"m  c #215E67",
"M  c #2A5866",
"N  c #225F68",
"B  c #2E5C6E",
"V  c #2F5F71",
"C  c #30666F",
"Z  c #296A74",
"A  c #326475",
"S  c #396474",
"D  c #336975",
"F  c #356C7B",
"G  c #3F6A79",
"H  c #414D52",
"J  c #445156",
"K  c #465459",
"L  c #49575C",
"P  c #456671",
"I  c #496A75",
"U  c #5A747D",
"Y  c #3D7484",
"T  c #3F7986",
"R  c #3F7C89",
"E  c #407A89",
"W  c #5E7880",
"Q  c #488693",
"!  c #4A8A97",
"~  c #4D8D99",
"^  c #4E919D",
"/  c #6A858D",
"(  c #658690",
")  c #678993",
"_  c #688A94",
"`  c #728E96",
"'  c #738F98",
"]  c #6F909A",
"[  c #75929A",
"{  c #79969F",
"}  c #7C9AA3",
"|  c #7F9FA9",
" . c #809EA7",
".. c #819FA8",
"X. c #829FA8",
"o. c #82A0A9",
"O. c #83A1AB",
"+. c #83A2AB",
"@. c #84A2AB",
"#. c #85A4AC",
"$. c #86A4AC",
"%. c #86A4AD",
"&. c #85A4AE",
"*. c #87A5AE",
"=. c #86A5AE",
"-. c #87A6AE",
";. c #89A7B0",
":. c #8AA9B2",
">. c #88AAB4",
",. c #89ABB5",
"<. c #89ACB5",
"1. c #8BAEB7",
"2. c #8CAFB8",
"3. c #8CB0BA",
"4. c #96B7C1",
"5. c #95BAC4",
"6. c #96BBC6",
"7. c #97BDC7",
"8. c #99BBC4",
"9. c #99BCC6",
"0. c #98BDC8",
"q. c #98BEC8",
"w. c #9ABFCA",
"e. c #9AC0CA",
"r. c #9DC2CC",
"t. c #9FC4CE",
"y. c #A0C6D0",
"u. c #A4CBD6",
/* pixels */
"                                            { }                     } { {                                             ",
"        ~ E E Y F D A G ] +. . .o.@.-.-.-.3.e.e.5.<.+.2.e.e.7.<.#.<.7.e.e.2.#.#.+.o.o.o.o.} ) S B A S Y Y T ~         ",
"      ! R F n x z s g I _ ) _ ) _ _ ) ) | 3.-.-.:.t.u.9.$.-.;.t.u.t.-.-.-.7.} ) ) ) _ _ ) ) ) P p k l b n F E Q       ",
"    Q E F b w 4 6 6 6 6 6 6 6 4 4 4 4 q z U / / / [ [ ` / / / ` [ ` / / / U p 6 6 4 4 6 4 6 6 7 q 4 4 q w d F R Q     ",
"  ^ Y F d w 2 2 : : : 8 8 : : : : 3 2 : 5 6 e e 7 u 7 6 e e e e e e e e e e 6 2 2 2 2 2 : : : : 8 : : 2 3 w d F R ^   ",
"  Q Y Z 0 2 2 : : : : : : : : 2 2 = 2 2 2 2 2 2 2 2 2 : : 2 2 ; 2 2 & 2 : : : 2 2 = : : : : 2 : = : 2 : 2 2 i Z Y Q   ",
"  R F m 0 2 : : 2 2 2 : : & 2 2 : : ; 2 : : : : : ; : ; 2 = : ; 2 2 2 2 & 2 2 2 : : : : : : : : & : : ; : , u m F R   ",
"  D s s 0 & ; ; & & & & & & & & & ; & & & & & & & ; , & & & & , & & & & & & & & & ; & & : & & & & & ; ; ; - 0 s s A   ",
"  p , u 1 , ; & & - & & & & & & & & & & & & & & & & & & & & & & & & & & & & & & & & & & & - & & & & & & & & 0 u , p   ",
"  6 : w 1 - & % & % - - - - - - % % > % - % - - - - - % - % % & % % % % % > % > % - - - & % - & - & - % - & 1 u , 6   ",
"  4 ; w 1 % % % % % % % % % % % % % % % % % % % % % % % % % % % % % % % % % % % % % % % % % % % % % % % @ % 1 0 ; 4   ",
"  q ; w < % % % % % % % % % % @ % % % % % % % % % % % % % % % % % % % % % % % % % % % % % % % % % @ % % % % 1 6 ; 6   ",
"  4 $ q < # % # % % % % @ % @ @ % % @ % @ @ % @ @ @ @ @ @ % @ % @ @ % @ @ % @ @ % @ % @ % % X X % @ % @ % @ < 6 ; 4   ",
"  : * 4 < # # O % X @ @ % X @ @ % % @ @ @ @ @ @ @ @ @ @ @ @ @ @ @ @ @ @ @ @ @ @ % @ @ @ @ @ % % @ % @ @ @ @ < 6 $ :   ",
"  : o , - # # O X % @ @ @ @ @ @ @ @ @ O @ X @ @ @ @ @ @ @ @ @ @ @ @ @ @ @ @ @ @ @ @ @ @ % @ @ @ @ @ @ @ @ @ > , $ ;   ",
"  & o , - # O O @ X X @ X @ X @ O O O O @ @ X @ X @ @ @ X @ X @ O @ O O O O @ O O O O O X @ X @ X @ X @ X @ - & o =   ",
"  4 o ; % O O X X X X X X X X X O X O O O O X X O O O X O O X O O X O O X O X X O O O X X X X X O X X O X # % ; o 2   ",
"    5 , % X X O X X X X X X X X X O X X O . X O X X O O . O X X X X X X X X X X X X O X X X X X X O X X . o % , 5     ",
"  c g 0 # . . X X X X X X X X . . X X X . O . . . . X . . . . . . . X X X X X X . X X X X . . . X X . . . o # 0 g     ",
"  z g w # O . . X X X X X X X X . . . . . . . . . X . X . O . X X . X X X X X X . X X X . . . . . . . . . O % w g z   ",
"    r e , % X . X X X X X X . X . . . . O $ & & * : : : : & & & = = & = & $ O . . . X . . . . . . . . . o O < e r     ",
"    g r e , O O X X X o $ @ X $ @ O $ $ 8 j j j j K K J j j j K L J j j j j : $ $ + $ $ X X $ $ O o . . # 2 e r g     ",
"      g 7 3 3 = * * * 9 j j H H j j j j H J H H H L L J j J H K J K H H H K H j j j j j H j j 8 o * = : : 3 r g       ",
"          7 7 5 3 8 : 8 8 8 8 9 8 8 8 8 8 h j H j t 8 j j j j y 8 y j H H y 8 8 8 8 8 8 8 8 8 = 3 3 3 5 5 7           ",
"                                                                                                                      "
};
