/* XPM */
static char *result[] = {
/* columns rows colors chars-per-pixel */
"33 40 223 2 ",
"   c #1C0E0F",
".  c #131313",
"X  c #181614",
"o  c #1D1E1E",
"O  c #181918",
"+  c #1F0F10",
"@  c #221915",
"#  c #271515",
"$  c #311F19",
"%  c #331A14",
"&  c #20100F",
"*  c #2A211B",
"=  c #21201F",
"-  c #3F231A",
";  c #35251C",
":  c #1D2020",
">  c #282523",
",  c #362C23",
"<  c #372C26",
"1  c #3F362D",
"2  c #4C0B0B",
"3  c #561616",
"4  c #510D0D",
"5  c #42241B",
"6  c #4B2B1C",
"7  c #542B1C",
"8  c #622E1A",
"9  c #7B341C",
"0  c #65301C",
"q  c #463429",
"w  c #543625",
"e  c #553826",
"r  c #5B3524",
"t  c #4F3326",
"y  c #693B26",
"u  c #733B26",
"i  c #6E2924",
"p  c #5B422F",
"a  c #594A3A",
"s  c #7D442B",
"d  c #7F4227",
"f  c #78563B",
"g  c #6C4B34",
"h  c #6F574E",
"j  c #71614F",
"k  c #5D6060",
"l  c #746A67",
"z  c #7B7372",
"x  c #870000",
"c  c #890202",
"v  c #8E0B09",
"b  c #910E0B",
"n  c #9A0D0B",
"m  c #980606",
"M  c #94110D",
"N  c #9E130F",
"B  c #981915",
"V  c #A80D0D",
"C  c #A01917",
"Z  c #A21B19",
"A  c #AA1C1D",
"S  c #BD1919",
"D  c #B51919",
"F  c #99231B",
"G  c #95221B",
"H  c #94391D",
"J  c #A3231B",
"K  c #A8351E",
"L  c #B3241F",
"P  c #9D2A22",
"I  c #992720",
"U  c #993127",
"Y  c #863323",
"T  c #A42422",
"R  c #A62B27",
"E  c #BE2221",
"W  c #A33126",
"Q  c #A13429",
"!  c #A5392D",
"~  c #A93B2E",
"^  c #A63C31",
"/  c #AF3F32",
"(  c #CF1E1F",
")  c #D01F1F",
"_  c #C82926",
"`  c #D02121",
"'  c #DE2626",
"]  c #DD2B2A",
"[  c #D32828",
"{  c #C5322C",
"}  c #D8392E",
"|  c #CE3C3A",
" . c #C93732",
".. c #DC3434",
"X. c #D53A38",
"o. c #E12A2A",
"O. c #ED2E2E",
"+. c #ED3534",
"@. c #EC3C39",
"#. c #E03434",
"$. c #F03836",
"%. c #F03A38",
"&. c #E3302F",
"*. c #97492C",
"=. c #834A31",
"-. c #944133",
";. c #9A4233",
":. c #9C493B",
">. c #89583A",
",. c #9B5335",
"<. c #834B2E",
"1. c #AB492B",
"2. c #A94333",
"3. c #AC4B3A",
"4. c #A54736",
"5. c #B24C35",
"6. c #AA5336",
"7. c #AA573A",
"8. c #B6583A",
"9. c #B0442B",
"0. c #CE4F36",
"q. c #EE413E",
"w. c #E94534",
"e. c #F0433E",
"r. c #D1613E",
"t. c #865C4D",
"y. c #B75C47",
"u. c #86664D",
"i. c #9C6C4B",
"p. c #926644",
"a. c #9A6E55",
"s. c #BF6B53",
"d. c #B27951",
"f. c #AB6D47",
"g. c #937D66",
"h. c #857474",
"j. c #877979",
"k. c #887369",
"l. c #CC4442",
"z. c #DB4D47",
"x. c #EF4C45",
"c. c #F24943",
"v. c #F14741",
"b. c #EB574C",
"n. c #F2544B",
"m. c #FF5E4B",
"M. c #F35A4D",
"N. c #F35E52",
"B. c #EF5950",
"V. c #CF6946",
"C. c #D16544",
"Z. c #D56847",
"A. c #CB795A",
"S. c #CC6D50",
"D. c #EF654C",
"F. c #F56A46",
"G. c #FF634D",
"H. c #FF6C4C",
"J. c #F16C49",
"K. c #E96457",
"L. c #F56154",
"P. c #F2695C",
"I. c #FF6853",
"U. c #FA7856",
"Y. c #F3704E",
"T. c #CA7960",
"R. c #FF7C63",
"E. c #E77963",
"W. c #BC845B",
"Q. c #BD8560",
"!. c #C6875C",
"~. c #D5865F",
"^. c #FF825D",
"/. c #CA8265",
"(. c #D18468",
"). c #D78468",
"_. c #D9976B",
"`. c #C8977B",
"'. c #DA9C7A",
"]. c #D59976",
"[. c #FE8066",
"{. c #FF8369",
"}. c #E39B6B",
"|. c #FF9677",
" X c #DCA27E",
".X c #E5A279",
"XX c #F3A77B",
"oX c #948786",
"OX c #948B8A",
"+X c #AE948F",
"@X c #B5A393",
"#X c #A7A9A9",
"$X c #B7AAA9",
"%X c #BAB1B1",
"&X c #C19D81",
"*X c #FC9F81",
"=X c #DEA582",
"-X c #DDAA88",
";X c #E1A582",
":X c #EBA986",
">X c #EBAC89",
",X c #E5AA87",
"<X c #F7A584",
"1X c #F5AD8A",
"2X c #FAAD89",
"3X c #F8AF87",
"4X c #ECB28C",
"5X c #E5B48C",
"6X c #F6B08C",
"7X c #F8B38E",
"8X c #E9B991",
"9X c #F7B991",
"0X c #C0B6B1",
"qX c #F4C097",
"wX c #F5D5A7",
"eX c #F5D6A9",
"rX c #F9DAAA",
"tX c #EFCDA0",
"yX c #C8C6C6",
"uX c #D7D9D9",
"iX c #E4E6E6",
"pX c #F8FAFA",
"aX c None",
/* pixels */
"B x x x x x x x x x x x x x x x x x x c b v c c x x x x x x x x aX",
"I s./.y.c D S S S S S S S S S S S S S E S S E S S S  .y.v y./.s.B ",
"R E.2X,Xv ] $.+.$.$.$.$.$.$.$.%.$.@.v.+.$.$.@.v.@.+.P.8XM Z.*XqXQ ",
"B o.N..XM ).7X6X7X3X7X3X3X6X1X6X6X6X1X6X6X1X1X6X6X6X9X5Xb ( v.5XQ ",
"Z ' L.;Xv F ~ ~ ! ! ! ! ~ 1.2.4.4.:.! ^ =.^ -.-.Q t.^ U c ( x.4XQ ",
"Z ' L.=Xv ! 2.4.2.2.2.2.5.6.*.=.y 7 5 % + .       + o + 4 ( x.4XQ ",
"C ' L.=XB 8X3X<X<X<X<X<XXX_.W.i.f y q , @ X . . . . O : 4 ( c.4XQ ",
"Z ' L..XF >Xq.o.&.&.o.&.w.0.9.*.u 7 < $ @ X . . . . . O 3 ) c.4XQ ",
"C ' L. XG ;X[ m n n n N W K H 9 8 6 5 $ # O . . . . . . 2 _ x.>XQ ",
"Z ' b.@X$X+X_ F ].'.].]._.!.W.p.g w - $ @ O . . . . . . 2 ( n.4XQ ",
"C o.0.yXpX$XA R rX|.[.R.^.U.S.7.=.e - $ @ X . . . . . . 2 ( x.4XQ ",
"C o.X.OXiXoXT R rX{.m.G.F.F.r.6.=.e 5 $ @ X . . . . . . 2 ` x.>X^ ",
"Z o.l.z yXj.R ~ eX[.m.G.H.J.r.6.=.e 5 ; # . . . . . . . 2 ( x.4XQ ",
"Z #.l.l #Xh.A W wX[.m.G.H.F.r.6.=.e - $ # X . . . . . . 2 ( c.4XQ ",
"T ..l.OXuXh.A U wX{.m.G.H.F.r.6.<.w - $ @ . . . . . . . 4 ) c.4XQ ",
"T ] z.l k h D R wXR.m.G.H.F.r.6.=.w 5 $ @ . . . . . . . 2 ) c.4XQ ",
"C ' N.&Xi `._ W wX[.G.G.H.F.r.6.=.w - $ @ X X . . . . . 2 ( e.5XU ",
"C o.N.=XR >X{ R wX{.m.G.H.F.r.6.=.w - $ @ X . . . . . . 2 ( c.4X^ ",
"Z o.P.=XF >X .U eX[.H.G.H.F.r.6.=.e - $ @ X . . . . . . 2 ) c.4XQ ",
"R X.P.,XU :X .^ tX9X3XXXXX}.!.i.f w - $ @   . . . . . . 2 ) c.4XR ",
"R ..K.=XI >X| b ! Q Q Q 9.1.*.d y 6 ; * @ X X . . . . . 2 ) c.4XU ",
"A ] N.=XP ,XK.A.T.T.A.A.A.A.f.>.g q , * @ X . . . . . . 2 ) c.4X^ ",
"B ' N.,XI :Xn.n.N.n.n.M.D.C.p.u.g q 1 * @ X X . . . . . 2 ) c.4X^ ",
"Z ' N.=XG :X@.O.+.+.O.+.w.3.g.g.j a 1 * @ X . . . . . . 2 ) c.4XQ ",
"R &.P.=XB :Xq.O.+.+.+.+.w.8.u.f a q , * @ X X . . . . . 2 ( q.5XQ ",
"Z ..P.=XG :X@.] ..] ' ] } 0.*.u r q , * @ X . . . . . . 2 ( v.4XU ",
"T ] P.;XI >X .n B N M N J K H 9 8 6 ; * @ X . . . . . . 2 ) v.5X^ ",
"Z ] K.=XF :X .P -X,X,X.X}._.d.<.0 6 - $ @ X . . . . . . 2 ) c.4X/ ",
"B ' L.&Xt.&X[ R rX|.U.R.U.Y.V.6.s e - * @ X X . . . . . 2 ) c.4XU ",
"Z ' z.%XpX+XA R wX[.m.I.H.F.r.6.<.e - ; @ X . . . . . . 2 ` n.4XQ ",
"Z o.| %XpX+XA R rX[.m.I.U.F.r.6.<.e - * @ O . . . . . . 2 [ x.4XQ ",
"C o.| j.uXh.A Q eX[.m.G.H.Y.r.6.=.r 5 $ O . . . . . . . 3 ` v.4XQ ",
"C o.| l #Xh.A W eX[.m.G.H.J.Z.6.<.w - $ @ O . . . . . o 4 ) c.4XQ ",
"C o.| j.yXh.A R rX{.G.H.H.J.V.y.<.w - $ @ X . . . X > . 2 ) c.4XQ ",
"C ' | z #Xl A W tX9X6X3XXX_.W.i.t.w 5 $ @ X . . X : . . 2 ) c.4XW ",
"C ' n.k.q a._ v P Q U W 9.1.*.d y w 5 $ @ X . O : X . . 2 ) c.4XU ",
"C ' L. XG ,XK./.(.(.(.(.~.!.f.>.g e t $ @ X O : X . . . 2 ( c.4XQ ",
"B ' L.=XF >Xn.n.n.M.n.M.F.Z.8.,.s y q < @ O = . . . . . 2 ( c.4XQ ",
"N ' L. XB 5X7X6X3X1X6X3XXX_.!.i.f p q < , > O . . . . . 2 ( v.,XU ",
"M V E ~ v 2.3.3.3.3.3.7.8.8.,.=.p t - * > > . . . . . . 2 n D / B "
};
