/* XPM */
static char *result[] = {
/* columns rows colors chars-per-pixel */
"55 45 182 2 ",
"   c #020202",
".  c #050B04",
"X  c #090E06",
"o  c #0A0C0B",
"O  c #090706",
"+  c #190B04",
"@  c #071106",
"#  c #0A1306",
"$  c #0C140A",
"%  c #0A1B09",
"&  c #0F1906",
"*  c #12170D",
"=  c #111D0B",
"-  c #131803",
";  c #0D1112",
":  c #161D13",
">  c #161C1F",
",  c #131619",
"<  c #391A06",
"1  c #2C1406",
"2  c #0E240C",
"3  c #0F280D",
"4  c #132B0E",
"5  c #18280B",
"6  c #1D330E",
"7  c #12300F",
"8  c #182212",
"9  c #153612",
"0  c #173D14",
"q  c #193B15",
"w  c #233C0E",
"e  c #373703",
"r  c #243C12",
"t  c #29230E",
"y  c #1A1E21",
"u  c #1B2325",
"i  c #262B2A",
"p  c #212B32",
"a  c #273135",
"s  c #29353C",
"d  c #363936",
"f  c #471F06",
"g  c #582509",
"h  c #662D09",
"j  c #7A310E",
"k  c #194416",
"l  c #1D4D19",
"z  c #1A4518",
"x  c #1E531A",
"c  c #27450F",
"v  c #274311",
"b  c #2C4C14",
"n  c #274915",
"m  c #235C1C",
"M  c #20551C",
"N  c #325515",
"B  c #355B18",
"V  c #23621E",
"C  c #3A6419",
"Z  c #3C691B",
"A  c #3C423A",
"S  c #256421",
"D  c #276B22",
"F  c #2A6D22",
"G  c #2A7325",
"H  c #2E7F29",
"J  c #2B7C27",
"K  c #337D26",
"L  c #484702",
"P  c #5F5D03",
"I  c #55521F",
"U  c #406D1C",
"Y  c #44741E",
"T  c #497D1F",
"R  c #636103",
"E  c #694C3D",
"W  c #447C21",
"Q  c #2E3D46",
"!  c #35444B",
"~  c #3C4C53",
"^  c #464744",
"/  c #475459",
"(  c #5B5A5A",
")  c #575857",
"_  c #485D65",
"`  c #4C626C",
"'  c #4F6671",
"]  c #516A74",
"[  c #546E79",
"{  c #626664",
"}  c #797877",
"|  c #80320C",
" . c #924E0A",
".. c #BE4D0F",
"X. c #B14B0E",
"o. c #A1440D",
"O. c #817D01",
"+. c #B3592D",
"@. c #C2590D",
"#. c #9A7563",
"$. c #2E8129",
"%. c #318C2C",
"&. c #30862A",
"*. c #34922E",
"=. c #36982F",
"-. c #3D9C2F",
";. c #379B31",
":. c #3AA433",
">. c #3BAB35",
",. c #4E8522",
"<. c #478323",
"1. c #528B23",
"2. c #419D2F",
"3. c #559225",
"4. c #599727",
"5. c #5D9E28",
"6. c #5B9B27",
"7. c #5FA329",
"8. c #57A02A",
"9. c #5FB22F",
"0. c #44AD34",
"q. c #4BAE33",
"w. c #52AE31",
"e. c #56B031",
"r. c #5AB130",
"t. c #4CAA31",
"y. c #61A52A",
"u. c #65AC2B",
"i. c #65B32E",
"p. c #6AB52D",
"a. c #6CB82E",
"s. c #8C8801",
"d. c #9C9803",
"f. c #B39006",
"g. c #C2BB01",
"h. c #DCD409",
"j. c #ECD903",
"k. c #FFF601",
"l. c #FFF902",
"z. c #E9E102",
"x. c #D6D12C",
"c. c #939272",
"v. c #C9C767",
"b. c #FCF662",
"n. c #5D7885",
"m. c #63818E",
"M. c #6B8C9A",
"N. c #668592",
"B. c #6E909E",
"V. c #7498A8",
"C. c #7CA1B2",
"Z. c #8A8887",
"A. c #9D9D9D",
"S. c #959595",
"D. c #89AAB9",
"F. c #A6A5A6",
"G. c #ABAAAB",
"H. c #A8A7A7",
"J. c #B7B6B6",
"K. c #EDEA8F",
"L. c #C0C0BF",
"P. c #89B3C6",
"I. c #90BDD1",
"U. c #97C6DB",
"Y. c #98C7DC",
"T. c #99C9DE",
"R. c #93C1D5",
"E. c #A2CBDD",
"W. c #B2CFDC",
"Q. c #A6CEE0",
"!. c #AFD3E3",
"~. c #B7D6E4",
"^. c #CDCDCC",
"/. c #C4C4C3",
"(. c #D3D3D4",
"). c #C9CAD1",
"_. c #C3DCE7",
"`. c #CBE1EB",
"'. c #D1E5EE",
"]. c #EEF6F9",
"[. c #FCFDFD",
"{. c None",
/* pixels */
"{.{.{.{.{.{.{.{.{.{.{.{.{.{.{.{.{.{.{.{.{.{.{.{.{.{.{.{.{.{.{.{.{.{.{.{.{.{.{.{.{.{.{.{.{.{.{.{.{.{.{.{.{.{.{.",
"{.{.{.{.{.{.{.{.{.{.{.{.{.{.{.{.{.{.{.{.{.{.{.{.{.{.{.{.{.{.{.{.{.{.{.{.{.{.{.{.{.{.{.{.{.{.{.{.{.{.{.{.{.{.{.",
"{.{.{.{.{.{.{.{.{.{.{.{.{.{.{.{.    {.{.{.{.{.{.{.{.{.{.{.{.{.{.{.{.{.{.{.{.{.{.{.{.{.{.{.{.{.{.{.{.{.{.{.{.{.",
"{.{.{.{.{.{.{.{.{.{.{.{.{.{.{.{.t P O {.{.{.{.  {.{.{.{.{.{.{.{.{.{.{.{.{.{.{.{.{.{.{.{.{.{.{.{.{.{.{.{.{.{.{.",
"{.{.{.{.{.{.{.{.{.{.{.{.{.{.{.{.L z.P   {.  L e {.{.{.{.{.{.{.{.{.{.{.{.{.{.{.{.{.{.{.{.{.{.{.{.{.{.{.{.{.{.{.",
"{.{.{.{.{.{.{.{.{.{.{.{.{.{.{.{.R l.z.L   ^ x.R   {.{.{.{.{.{.{.{.{.{.{.3 m 6 8 {.{.{.{.{.{.{.{.{.{.{.{.{.{.{.",
"{.{.{.{.{.{.{.{.{.{.{.{.{.{.{.  s.l.l.h.c.(.b.s.  {.{.{.{.{.{.{.{.{.{.q &.w.C 3.B {.{.o {.{.{.{.{.{.{.{.{.{.{.",
"{.{.{.{.{.{.{.{.{.{.{.{.  O     d.l.k.l.K.).v.s.O {.{.{.{.{.{.{.{.{.q *.q.y.C p.,.n * * {.{.{.{.{.{.{.{.{.{.{.",
"{.{.{.{.{.{.{.{.{.{.{.{.  g h g @.k.k.g.I y * -       {.{.{.{.{.{.$ n D W C ,.p.U Z 8 * {.{.{.{.{.{.{.{.{.{.{.",
"{.{.{.{.{.{.{.{.{.{.{.{.{.< X.@.@.j.d.- 5 U W W Y N 7 O   {.{.{.q W 3.4.<.n 5.1.C n 8 # {.{.{.{.{.{.{.{.{.{.{.",
"{.{.{.{.{.{.{.{.{.{.{.{.{.  h ....O.- b u.p.p.p.p.p.u.,.w   {.{.l :.0.2.K 9 6 B Y 8 : i A {.{.{.{.{.{.{.{.{.{.",
"{.{.{.{.{.{.{.{.{.{.{.{.{.{.+ o.o.+ v u.p.p.p.p.p.p.p.a.u.B   {.{.q z 9 {.{.{.N r : d S.S.) ) { d {.{.{.{.{.{.",
"{.{.{.{.{.{.{.{.{.{.{.{.{.{.  < f - 5.p.p.p.p.p.a.a.p.p.p.p.b   {.{.{.{.{.{.{.o * : } G.F.H./.^.{ {.d i {.{.{.",
"{.{.{.{.{.{.{.{.{.{.{.{.{.{.{.  O U p.p.p.p.7.,.C N c c w c w     {.{.{.{.{.{.o {.{.d } F.G.^.^.G.A.Z.( {.{.{.",
"{.{.{.{.{.{.{.{.{.{.{.{.{.{.{.  % 8.p.p.y.N & $ > i s Q ! Q p ;   {.{.{.{.{.{.{.{.{.{.{.( A.^.^.(.J.Z.( {.{.{.",
"{.{.{.{.{.{.{.{.{.{.{.{.{.{.{.  M i.p.p.B o ~ V.P.I.E.~.`.`.W.D._ o {.{.{.{.{.{.{.{.{.{.{.^ A.(.^.H.Z.E {.{.{.",
"{.{.{.{.{.{.{.{.{.{.{.{.{.{.{.. K i.p.y.& a m.T.T.T.'.[.[.[.[.].~.]   {.{.{.{.{.{.{.{.{.{.{.{.} L.A.#.j {.{.{.",
"{.{.{.{.{.{.{.{.{.{.{.{.{.{.{.% -.i.p.3.X ~ [ P.T.Y.Q.'.].[.[.[.`.P.u {.{.{.{.{.{.{.{.{.{.{.{.{.) } +.j {.{.{.",
"{.{.{.{.{.{.{.{.{.{.{.{.      9 0.i.p.1.o ~ ` B.Y.Y.Y.Y.T.!.~.!.T.U.Q   {.{.{.{.{.{.{.{.{.{.{.{.{.t | j {.{.{.",
"{.{.{.{.{.{.{.{.{.{.  # 5 r . x 0.p.p.4.@ ! ' ] C.R.Y.Y.T.Y.U.R.P.B.a   {.{.{.{.{.{.{.{.{.{.{.{.{.{.{.1 {.{.{.",
"{.{.{.{.{.{.{.{.{.  r 6.i.5.& F 0.p.p.y.2 a ' ` ] n.N.M.M.M.m.n.' ` u   {.{.{.{.{.{.{.{.{.{.{.{.{.{.{.{.{.{.{.",
"{.{.{.{.{.{.{.{.{.X ,.a.a.3.X J 0.i.p.p.N o ~ ` ` ` _ ` ` ` ` ` ' / $ {.{.{.{.{.{.{.{.{.{.{.{.{.{.{.{.{.{.{.{.",
"{.{.{.{.{.{.{.{.{.% t.t.0.$.@ %.0.i.p.p.y.w O i ! _ _ _ ` ` _ _ ~ >   {.{.{.{.{.{.{.{.{.{.{.{.{.{.{.{.{.{.{.{.",
"{.{.{.{.{.{.{.{.  9 :.>.>.G @ *.0.i.p.p.p.y.B 5 X o ; , > y , ; O   {.{.{.{.{.{.{.{.{.{.{.{.{.{.{.{.{.{.{.{.{.",
"{.{.{.{.{.{.{.{.  l >.>.>.D # =.>.9.p.p.p.p.a.y.3.Y C B b b N C Z # {.{.{.{.{.{.{.{.{.{.{.{.{.{.{.{.{.{.{.{.{.",
"{.{.{.{.{.{.{.{.  m >.>.>.V % ;.>.7.p.p.p.p.p.p.p.p.p.p.p.p.p.p.4.@ {.{.{.{.{.{.{.{.{.{.{.{.{.{.{.{.{.{.{.{.{.",
"{.{.{.{.{.{.{.{.  S >.>.>.V % ;.>.e.p.p.p.p.u.i.p.p.p.p.p.p.p.p.3.O {.{.{.{.{.{.{.{.{.{.{.{.{.{.{.{.{.{.{.{.{.",
"{.{.{.{.{.{.{.{.  S >.>.>.V % ;.>.0.p.p.p.p.p.p.p.p.p.p.p.p.p.a.,.O {.{.{.{.{.{.{.{.{.{.{.{.{.{.{.{.{.{.{.{.{.",
"{.{.{.{.{.{.{.{.  V >.>.>.V % ;.>.>.i.p.p.p.p.p.p.p.p.p.p.p.p.p.W   {.{.{.{.{.{.{.{.{.{.{.{.{.{.{.{.{.{.{.{.{.",
"{.{.{.{.{.{.{.{.  m >.>.>.V % =.>.>.w.i.p.p.p.p.i.p.p.p.p.p.p.p.Z   {.{.{.{.{.{.{.{.{.{.{.{.{.{.{.{.{.{.{.{.{.",
"{.{.{.{.{.{.{.{.  x >.>.>.V % =.>.>.>.r.p.p.p.p.i.p.p.p.p.p.p.i.m   {.{.{.{.{.{.{.{.{.{.{.{.{.{.{.{.{.{.{.{.{.",
"{.{.{.{.{.{.{.{.  k >.>.>.G # *.>.>.>.>.e.p.p.p.p.p.p.p.p.p.i.q.n   {.{.{.{.{.{.{.{.{.{.{.{.{.{.{.{.{.{.{.{.{.",
"{.{.{.{.{.{.{.{.  9 >.>.>.G # *.>.>.>.>.>.0.r.i.i.p.p.p.i.r.0.>.0   {.{.{.{.{.{.{.{.{.{.{.{.{.{.{.{.{.{.{.{.{.",
"{.{.{.{.{.{.{.{.{.2 :.>.>.J . %.>.>.>.>.:.>.>.>.q.q.q.0.>.>.>.:.4   {.{.{.{.{.{.{.{.{.{.{.{.{.{.{.{.{.{.{.{.{.",
"{.{.{.{.{.{.{.{.{.@ *.>.>.%.@ $.>.>.:.>.>.>.>.>.>.>.>.>.>.>.>.:.% {.{.{.{.{.{.{.{.{.{.{.{.{.{.{.{.{.{.{.{.{.{.",
"{.{.{.{.{.{.{.{.{.  l $.*.D . G >.>.>.>.>.>.=.%.%.*.*.*.*.:.>.*.@ {.{.{.{.{.{.{.{.{.{.{.{.{.{.{.{.{.{.{.{.{.{.",
"{.{.{.{.{.{.{.{.{.{.  O @ .   V >.>.>.>.>.:.9 . @ @ % 3 S :.>.$.. {.{.{.{.{.{.{.{.{.{.{.{.{.{.{.{.{.{.{.{.{.{.",
"{.{.{.{.{.{.{.{.{.{.{.{.{.{.  x >.>.>.>.>.=.#   {.  k ;.>.>.>.D   {.{.{.{.{.{.{.{.{.{.{.{.{.{.{.{.{.{.{.{.{.{.",
"{.{.{.{.{.{.{.{.{.{.{.{.{.{.  0 :.>.>.>.>.%.. {.{.  k >.>.>.>.x   {.{.{.{.{.{.{.{.{.{.{.{.{.{.{.{.{.{.{.{.{.{.",
"{.{.{.{.{.{.{.{.{.{.{.{.{.{.  2 :.>.>.>.>.$.X {.{.  4 :.>.:.>.0   {.{.{.{.{.{.{.{.{.{.{.{.{.{.{.{.{.{.{.{.{.{.",
"{.{.{.{.{.{.{.{.{.{.{.{.{.{.{.% ;.>.>.>.>.H O {.{.{.3 :.>.>.:.3   {.{.{.{.{.{.{.{.{.{.{.{.{.{.{.{.{.{.{.{.{.{.",
"{.{.{.{.{.{.{.{.{.{.{.{.{.{.{.. V %.=.;.%.M   {.{.{.@ S G G m X {.{.{.{.{.{.{.{.{.{.{.{.{.{.{.{.{.{.{.{.{.{.{.",
"{.{.{.{.{.{.{.{.{.{.{.{.{.{.{.    X # % X     {.{.{.            {.{.{.{.{.{.{.{.{.{.{.{.{.{.{.{.{.{.{.{.{.{.{.",
"{.{.{.{.{.{.{.{.{.{.{.{.{.{.{.{.{.{.{.{.{.{.{.{.{.{.{.{.{.{.{.{.{.{.{.{.{.{.{.{.{.{.{.{.{.{.{.{.{.{.{.{.{.{.{.",
"{.{.{.{.{.{.{.{.{.{.{.{.{.{.{.{.{.{.{.{.{.{.{.{.{.{.{.{.{.{.{.{.{.{.{.{.{.{.{.{.{.{.{.{.{.{.{.{.{.{.{.{.{.{.{."
};
