/* XPM */
static char *result[] = {
/* columns rows colors chars-per-pixel */
"55 45 183 2 ",
"   c #010101",
".  c #050B03",
"X  c #080E05",
"o  c #070909",
"O  c #0A0C0C",
"+  c #0A0602",
"@  c #180A01",
"#  c #061205",
"$  c #0A1305",
"%  c #0B1A07",
"&  c #0A180A",
"*  c #121807",
"=  c #0C0F11",
"-  c #0D1112",
";  c #151C1F",
":  c #121618",
">  c #391802",
",  c #2C190C",
"<  c #0C240A",
"1  c #0F2A0C",
"2  c #172808",
"3  c #11350E",
"4  c #1D330B",
"5  c #143510",
"6  c #153D11",
"7  c #183C11",
"8  c #243F0B",
"9  c #20370B",
"0  c #373702",
"q  c #252502",
"w  c #1A1E21",
"e  c #1A2325",
"r  c #252A28",
"t  c #212C32",
"y  c #253135",
"u  c #29353D",
"i  c #353835",
"p  c #471D01",
"a  c #582201",
"s  c #662B02",
"d  c #7B2F05",
"f  c #164412",
"g  c #1B4D14",
"h  c #184615",
"j  c #1B5417",
"k  c #1E5D19",
"l  c #26440C",
"z  c #2B4A0E",
"x  c #25490F",
"c  c #30530E",
"v  c #2B4B10",
"b  c #205F18",
"n  c #225A17",
"m  c #315511",
"M  c #355B13",
"N  c #1F631A",
"B  c #21631B",
"V  c #246C1D",
"C  c #3A6414",
"Z  c #3D6B15",
"A  c #376716",
"S  c #25721F",
"D  c #3A4136",
"F  c #267520",
"G  c #2C7E21",
"H  c #277D22",
"J  c #327F20",
"K  c #474602",
"L  c #5E5D01",
"P  c #55521E",
"I  c #427B1A",
"U  c #447618",
"Y  c #636102",
"T  c #6A4B3B",
"R  c #2F3D46",
"E  c #34444B",
"W  c #34444A",
"Q  c #3A4C52",
"!  c #464744",
"~  c #455559",
"^  c #5B5B5A",
"/  c #555857",
"(  c #465C64",
")  c #485F68",
"_  c #4A626C",
"`  c #4E6772",
"'  c #526C77",
"]  c #5F6463",
"[  c #787674",
"{  c #636764",
"}  c #812D00",
"|  c #8D3803",
" . c #8C5901",
".. c #A24101",
"X. c #B94901",
"o. c #817D00",
"O. c #B55623",
"+. c #C04901",
"@. c #C45501",
"#. c #9C7560",
"$. c #2A8323",
"%. c #2C8C25",
"&. c #2E9227",
"*. c #2F9528",
"=. c #319C2A",
"-. c #3B9F29",
";. c #33A52C",
":. c #35AD2E",
">. c #3BAD2D",
",. c #39A42A",
"<. c #36B02F",
"1. c #3EB02D",
"2. c #4C841A",
"3. c #4A861C",
"4. c #528D1C",
"5. c #55931D",
"6. c #5A9B1F",
"7. c #58971F",
"8. c #5D9F20",
"9. c #43AE2B",
"0. c #4BA927",
"q. c #5EA321",
"w. c #55A122",
"e. c #43B12C",
"r. c #4AB12A",
"t. c #5BB427",
"y. c #55B228",
"u. c #64AB22",
"i. c #60A521",
"p. c #65B525",
"a. c #6AB624",
"s. c #6CB925",
"d. c #7E807F",
"f. c #8B8801",
"g. c #9B9802",
"h. c #A79D01",
"j. c #C08101",
"k. c #C2BB00",
"l. c #DCD408",
"z. c #EBD801",
"x. c #FFF600",
"c. c #FFF901",
"v. c #E9E101",
"b. c #D6D12B",
"n. c #939372",
"m. c #C9C767",
"M. c #FDF762",
"N. c #5C7985",
"B. c #6B8D9A",
"V. c #668693",
"C. c #6E919F",
"Z. c #63828E",
"A. c #7599A9",
"S. c #7CA3B4",
"D. c #8C8988",
"F. c #9E9E9E",
"G. c #969796",
"H. c #8AACBA",
"J. c #ABAAAB",
"K. c #A5A4A5",
"L. c #B9B8B8",
"P. c #EEEB90",
"I. c #8BB5C8",
"U. c #92BFD3",
"Y. c #9AC9DE",
"T. c #97C5D9",
"R. c #ACCEDD",
"E. c #9DCCE1",
"W. c #A4CEE0",
"Q. c #ACD2E3",
"!. c #B8D8E6",
"~. c #B1D4E4",
"^. c #CCCCCC",
"/. c #C4C4C3",
"(. c #D0D0CF",
"). c #D3D3D3",
"_. c #CACBD2",
"`. c #C4DDE8",
"'. c #CCE3ED",
"]. c #D2E6EF",
"[. c #EFF6FA",
"{. c #FDFDFD",
"}. c None",
/* pixels */
"}.}.}.}.}.}.}.}.}.}.}.}.}.}.}.}.}.}.}.}.}.}.}.}.}.}.}.}.}.}.}.}.}.}.}.}.}.}.}.}.}.}.}.}.}.}.}.}.}.}.}.}.}.}.}.",
"}.}.}.}.}.}.}.}.}.}.}.}.}.}.}.}.}.}.}.}.}.}.}.}.}.}.}.}.}.}.}.}.}.}.}.}.}.}.}.}.}.}.}.}.}.}.}.}.}.}.}.}.}.}.}.",
"}.}.}.}.}.}.}.}.}.}.}.}.}.}.}.}.}.}.}.}.}.}.}.}.}.}.}.}.}.}.}.}.}.}.}.}.}.  . }.}.}.}.}.}.}.}.}.}.}.}.}.}.}.}.",
"}.}.}.}.}.}.}.}.}.}.}.}.}.}.}.}.}.}.}.}.}.}.}.}.}.}.}.}.}.}.}.  }.}.}.}.. L q }.}.}.}.}.}.}.}.}.}.}.}.}.}.}.}.",
"}.}.}.}.}.}.}.}.}.}.}.}.}.}.}.}.}.}.}.}.}.}.}.}.}.}.}.}.}.}.}.0 0   }.  L v.K }.}.}.}.}.}.}.}.}.}.}.}.}.}.}.}.",
"}.}.}.}.}.}.}.}.}.}.}.}.}.}.}.2 4 n 1 }.}.}.}.}.}.}.}.}.}.}.  o.b.!   K z.x.Y }.}.}.}.}.}.}.}.}.}.}.}.}.}.}.}.",
"}.}.}.}.}.}.}.}.}.}.}.. }.}.M 5.C r.$.5 }.}.}.}.}.}.}.}.}.}.  f.M.).n.l.c.c.f.  }.}.}.}.}.}.}.}.}.}.}.}.}.}.}.",
"}.}.}.}.}.}.}.}.}.}.}.X $ v 2.s.C q.r.*.6 }.}.}.}.}.}.}.}.}.  f.m._.P.c.x.c.h.+   +   }.}.}.}.}.}.}.}.}.}.}.}.",
"}.}.}.}.}.}.}.}.}.}.}.$ * Z U s.2.C I V g $ }.}.}.}.}.}.      X * w P k.x.x.j.a s a + }.}.}.}.}.}.}.}.}.}.}.}.",
"}.}.}.}.}.}.}.}.}.}.}.X % l M 2.6.x 2.7.5.I 7 }.}.}.  . 2 M U 2.U U 2 * g.z.@.+.X.> }.}.}.}.}.}.}.}.}.}.}.}.}.",
"}.}.}.}.}.}.}.}.}.}.D r % % U M 4 7 G -.9.,.j }.}.  4 2.u.a.a.a.a.s.u.v @  .+.+.a . }.}.}.}.}.}.}.}.}.}.}.}.}.",
"}.}.}.}.}.}.i { / / G.G.i $ 4 m }.}.}.5 h 6 }.}.o m p.s.s.a.a.a.a.a.a.a.x @ ..| @ }.}.}.}.}.}.}.}.}.}.}.}.}.}.",
"}.}.}.r i }.] ^./.J.J.J.[ - $ . }.}.}.}.}.}.}.  z a.a.a.a.a.s.s.a.a.a.s.q.* p >   }.}.}.}.}.}.}.}.}.}.}.}.}.}.",
"}.}.}.^ D.K.J.(.^.J.K.[ i }.}.. }.}.}.}.}.}.+   8 l 8 l z c Z 2.8.a.a.a.s.Z   + }.}.}.}.}.}.}.}.}.}.}.}.}.}.}.",
"}.}.}.^ D.L.).(.(.F./ }.}.}.}.}.}.}.}.}.}.}.  - r R W R u t ; = % m u.s.s.w.%   }.}.}.}.}.}.}.}.}.}.}.}.}.}.}.",
"}.}.}.T D.J.(.(.F.! }.}.}.}.}.}.}.}.}.}.}.O ( H.R.`.'.!.R.T.I.A.Q . M a.s.t.g   }.}.}.}.}.}.}.}.}.}.}.}.}.}.}.",
"}.}.}.d #.F./.d.}.}.}.}.}.}.}.}.}.}.}.}.  ' !.[.{.{.{.{.].E.E.T.Z.y * i.s.p.G . }.}.}.}.}.}.}.}.}.}.}.}.}.}.}.",
"}.}.}.} O.[ / }.}.}.}.}.}.}.}.}.}.}.}.}.e I.'.{.{.{.[.].W.E.E.I.' Q X 5.s.a.-.% }.}.}.}.}.}.}.}.}.}.}.}.}.}.}.",
"}.}.}.d } , }.}.}.}.}.}.}.}.}.}.}.}.}.  W T.Y.Q.!.~.W.E.Y.Y.E.A._ Q X 4.s.p.>.3       }.}.}.}.}.}.}.}.}.}.}.}.",
"}.}.}., }.}.}.}.}.}.}.}.}.}.}.}.}.}.}.  y B.I.T.T.E.E.T.T.T.S.` _ E $ 6.s.a.1.j . l 2 $   }.}.}.}.}.}.}.}.}.}.",
"}.}.}.}.}.}.}.}.}.}.}.}.}.}.}.}.}.}.}.  e _ ` N.Z.B.B.B.V.N.` _ _ y 2 i.a.p.e.V % 6.p.6.8   }.}.}.}.}.}.}.}.}.",
"}.}.}.}.}.}.}.}.}.}.}.}.}.}.}.}.}.}.}.}.O ~ ` _ _ _ _ _ _ _ _ _ Q o c a.a.p.1.$.X 5.s.s.2.. }.}.}.}.}.}.}.}.}.",
"}.}.}.}.}.}.}.}.}.}.}.}.}.}.}.}.}.}.}.}.  ; Q ( _ _ _ ( ( ~ Q t . 9 i.a.a.p.<.%.# $.r.9.0.* }.}.}.}.}.}.}.}.}.",
"}.}.}.}.}.}.}.}.}.}.}.}.}.}.}.}.}.}.}.}.}.  . = : ; w : - o . 2 C u.a.a.a.p.>.&.# S >.:.;.3   }.}.}.}.}.}.}.}.",
"}.}.}.}.}.}.}.}.}.}.}.}.}.}.}.}.}.}.}.}.}.# Z C v x z m C I 5.u.s.a.a.a.a.t.<.=.$ V <.:.:.g   }.}.}.}.}.}.}.}.",
"}.}.}.}.}.}.}.}.}.}.}.}.}.}.}.}.}.}.}.}.}.X 8.s.s.s.s.s.s.s.s.a.a.a.a.a.a.y.:.=.& B <.;.:.k   }.}.}.}.}.}.}.}.",
"}.}.}.}.}.}.}.}.}.}.}.}.}.}.}.}.}.}.}.}.}.. 4.s.a.a.a.a.a.a.a.a.a.a.a.a.a.y.:.=.% N <.:.:.B   }.}.}.}.}.}.}.}.",
"}.}.}.}.}.}.}.}.}.}.}.}.}.}.}.}.}.}.}.}.}.. 4.s.a.a.a.a.a.a.a.a.a.a.a.a.a.9.:.=.% N :.:.<.B   }.}.}.}.}.}.}.}.",
"}.}.}.}.}.}.}.}.}.}.}.}.}.}.}.}.}.}.}.}.}.  I s.a.a.a.a.a.a.a.a.a.a.a.a.t.:.<.=.% k :.:.<.B   }.}.}.}.}.}.}.}.",
"}.}.}.}.}.}.}.}.}.}.}.}.}.}.}.}.}.}.}.}.}.  Z s.a.a.a.a.a.a.a.a.a.a.a.a.r.:.:.=.% N :.:.:.b   }.}.}.}.}.}.}.}.",
"}.}.}.}.}.}.}.}.}.}.}.}.}.}.}.}.}.}.}.}.}.  n p.a.a.a.a.a.a.a.a.a.a.a.y.:.:.:.=.% N :.:.:.j   }.}.}.}.}.}.}.}.",
"}.}.}.}.}.}.}.}.}.}.}.}.}.}.}.}.}.}.}.}.}.  g 9.p.a.a.a.a.a.a.a.a.a.y.<.;.:.:.=.& N :.:.:.f   }.}.}.}.}.}.}.}.",
"}.}.}.}.}.}.}.}.}.}.}.}.}.}.}.}.}.}.}.}.}.  6 :.9.y.a.a.a.a.a.p.y.9.:.:.:.:.:.&.# S <.:.;.3   }.}.}.}.}.}.}.}.",
"}.}.}.}.}.}.}.}.}.}.}.}.}.}.}.}.}.}.}.}.}.  1 ;.:.:.>.9.r.e.9.>.:.:.:.;.:.:.:.%.# H :.:.;.< }.}.}.}.}.}.}.}.}.",
"}.}.}.}.}.}.}.}.}.}.}.}.}.}.}.}.}.}.}.}.}.}.% =.:.:.:.:.:.:.:.:.:.:.:.:.:.:.<.$.# %.<.:.*.# }.}.}.}.}.}.}.}.}.",
"}.}.}.}.}.}.}.}.}.}.}.}.}.}.}.}.}.}.}.}.}.}.# &.:.;.&.&.&.*.&.&.=.:.:.:.:.:.<.S . V &.%.f   }.}.}.}.}.}.}.}.}.",
"}.}.}.}.}.}.}.}.}.}.}.}.}.}.}.}.}.}.}.}.}.}.. $.<.;.N 1 & # . . 5 ;.:.:.:.:.:.N   . # .   }.}.}.}.}.}.}.}.}.}.",
"}.}.}.}.}.}.}.}.}.}.}.}.}.}.}.}.}.}.}.}.}.}.  V <.:.:.=.6   }.  # *.:.:.:.:.:.j   }.}.}.}.}.}.}.}.}.}.}.}.}.}.",
"}.}.}.}.}.}.}.}.}.}.}.}.}.}.}.}.}.}.}.}.}.}.  j :.:.:.:.f   }.}.X %.:.:.:.:.;.6   }.}.}.}.}.}.}.}.}.}.}.}.}.}.",
"}.}.}.}.}.}.}.}.}.}.}.}.}.}.}.}.}.}.}.}.}.}.  6 :.:.:.;.1   }.}.. $.:.:.:.:.;.<   }.}.}.}.}.}.}.}.}.}.}.}.}.}.",
"}.}.}.}.}.}.}.}.}.}.}.}.}.}.}.}.}.}.}.}.}.}.  1 ;.<.<.;.< }.}.}.. H <.:.:.:.=.% }.}.}.}.}.}.}.}.}.}.}.}.}.}.}.",
"}.}.}.}.}.}.}.}.}.}.}.}.}.}.}.}.}.}.}.}.}.}.}.. b V F B # }.}.}.  j &.=.=.%.N . }.}.}.}.}.}.}.}.}.}.}.}.}.}.}.",
"}.}.}.}.}.}.}.}.}.}.}.}.}.}.}.}.}.}.}.}.}.}.}.            }.}.}.    . % $ .     }.}.}.}.}.}.}.}.}.}.}.}.}.}.}.",
"}.}.}.}.}.}.}.}.}.}.}.}.}.}.}.}.}.}.}.}.}.}.}.}.}.}.}.}.}.}.}.}.}.}.}.}.}.}.}.}.}.}.}.}.}.}.}.}.}.}.}.}.}.}.}.",
"}.}.}.}.}.}.}.}.}.}.}.}.}.}.}.}.}.}.}.}.}.}.}.}.}.}.}.}.}.}.}.}.}.}.}.}.}.}.}.}.}.}.}.}.}.}.}.}.}.}.}.}.}.}.}."
};
