/* XPM */
static char *result[] = {
/* columns rows colors chars-per-pixel */
"30 40 145 2 ",
"   c #030105",
".  c #0C0306",
"X  c #030209",
"o  c #0B0309",
"O  c #0B0B0D",
"+  c #130407",
"@  c #1A0406",
"#  c #14040B",
"$  c #1C040D",
"%  c #12090D",
"&  c #1C090A",
"*  c #0C0F11",
"=  c #120E10",
"-  c #0E1114",
";  c #151214",
":  c #191719",
">  c #15191C",
",  c #1A1A1C",
"<  c #220507",
"1  c #290607",
"2  c #23040E",
"3  c #290608",
"4  c #240D0D",
"5  c #2C0909",
"6  c #3E0707",
"7  c #33070C",
"8  c #3F0708",
"9  c #3C090A",
"0  c #250511",
"q  c #2C0515",
"w  c #230F11",
"e  c #310617",
"r  c #340519",
"t  c #3B061C",
"y  c #171D20",
"u  c #181E20",
"i  c #1C2629",
"p  c #1D282C",
"a  c #1F2C31",
"s  c #252526",
"d  c #28282E",
"f  c #232C32",
"g  c #233337",
"h  c #27383C",
"j  c #2B393E",
"k  c #353635",
"l  c #3B3C3B",
"z  c #43080A",
"x  c #4B090A",
"c  c #5A0B0B",
"v  c #42061E",
"b  c #630C0B",
"n  c #720D0C",
"m  c #7B0E0D",
"M  c #6A0B13",
"N  c #460621",
"B  c #4D0725",
"V  c #4C0822",
"C  c #530726",
"Z  c #540826",
"A  c #56072A",
"S  c #590729",
"D  c #570829",
"F  c #5C082A",
"G  c #680926",
"H  c #62072E",
"J  c #65082F",
"K  c #660830",
"L  c #6C0932",
"P  c #740936",
"I  c #780937",
"U  c #7A0839",
"Y  c #35494F",
"T  c #384E54",
"R  c #3B5259",
"E  c #3F585F",
"W  c #424344",
"Q  c #47484D",
"!  c #4B4C4D",
"~  c #4C4B51",
"^  c #46575E",
"/  c #425C64",
"(  c #47636B",
")  c #48656E",
"_  c #4C6A72",
"`  c #506973",
"'  c #506F78",
"]  c #55737E",
"[  c #830E0F",
"{  c #910F0E",
"}  c #8E100F",
"|  c #96100F",
" . c #9A100F",
".. c #810C1D",
"X. c #940E15",
"o. c #911110",
"O. c #981010",
"+. c #AC0F1F",
"@. c #A21110",
"#. c #AE1211",
"$. c #AE101E",
"%. c #B31211",
"&. c #BC1214",
"*. c #B4111B",
"=. c #B91218",
"-. c #800B20",
";. c #8D0B2D",
":. c #9C0D27",
">. c #930C2C",
",. c #990C28",
"<. c #830934",
"1. c #8A0A30",
"2. c #A00E24",
"3. c #AB1021",
"4. c #C51311",
"5. c #C81311",
"6. c #557580",
"7. c #577882",
"8. c #638590",
"9. c #668996",
"0. c #6F93A1",
"q. c #719AA8",
"w. c #7CA7B6",
"e. c #81ADBD",
"r. c #85B0BF",
"t. c #87B6C6",
"y. c #87B7C8",
"u. c #8AB9CA",
"i. c #9DBCC7",
"p. c #9DC3CF",
"a. c #9AC7D7",
"s. c #97C9DB",
"d. c #9CCEDF",
"f. c #A6D0E1",
"g. c #AFD3E0",
"h. c #B6D8E5",
"j. c #BBDAE6",
"k. c #C1DFE8",
"l. c #C3E0E9",
"z. c #CEE4EC",
"x. c #E0EEF2",
"c. c #E9F2F5",
"v. c #F6F9FA",
"b. c #F9FCFC",
"n. c None",
/* pixels */
"n.n.n.n.n.n.n.n.n.n.n.n.n.n.n.n.n.n.n.n.n.n.n.n.n.n.n.n.n.n.",
"n.n.n.n.n.n.n.n.n.n.n.n.n.n.n.n.n.n.n.n.n.n.n.n.n.n.n.n.n.n.",
"n.n.n.n.n.n.n.n.n.n.n.n.n.n.n.n.n.n.n.n.n.n.n.n.n.n.n.n.n.n.",
"n.n.n.n.n.n.n.n.n.n.    .   o o   X n.n.n.n.n.n.n.n.n.n.n.n.",
"n.n.n.n.n.n.n.n.  & x b b b c c x z &   n.n.n.n.n.n.n.n.n.n.",
"n.n.n.n.n.n.n.  < [ 4.4.5.4.4.4.&.&.} 5 X n.n.n.n.n.n.n.n.n.",
"n.n.n.n.n.n.n.  x } | | |  .@.%.4.4.4.m + n.n.n.n.n.n.n.n.n.",
"n.n.n.n.n.n.    & 4 w w w w 4 9 } 4.4.%.z   n.n.n.n.n.n.n.n.",
"n.n.n.n.n.  O j ] 8.9.9.9.8.] i z %.5.&.M o n.n.n.n.n.n.n.n.",
"n.n.n.n.  * ^ i.j.k.k.j.f.s.u.R & o.5.4.I $ X n.n.n.n.n.n.n.",
"n.n.n.n.* ` a.x.b.b.b.c.j.s.w./ : n 4.4.-.r   X n.n.n.n.n.n.",
"n.n.n.n.f e.d.h.z.z.k.g.s.u.9./ > b 4.&.;.v . @ o n.n.n.n.n.",
"n.n.n.n.i 0.t.y.t.e.w.q.9.7._ ^ > b 4.*.<.A $ b 5   n.n.n.n.",
"n.n.n.n.* R 6.6.] ' _ ) ) ) ) T = [ 5.+.<.K $ b 9   n.n.n.n.",
"n.n.n.n.o h ( ) ) ( ) ( ) ) ( g 1 @.5.:.U L 0 z 7   n.n.n.n.",
"n.n.n.n.  > Y / ( ( ( ( / R h % b &.4.:.U P 0 0 2   n.n.n.n.",
"n.n.n.n.n.  * y i g p i , ; < c #.5.&.>.I P q $ $ X n.n.n.n.",
"n.n.n.n.n.@ c c z 6 9 x c n | &.4.4.&.>.I I e $ $ X n.n.n.n.",
"n.n.n.n.n.1 @.5.&.%.%.&.&.4.4.4.4.4.&.1.U I e # # n.n.n.n.n.",
"n.n.n.n.n.1 @.5.4.4.5.4.5.4.4.4.4.5.*.<.U I r $ # n.n.n.n.n.",
"n.n.n.n.n.3 @.5.4.4.4.4.4.4.4.4.4.&.:.U U P e $ # n.n.n.n.n.",
"n.n.n.n.n.$ X.5.4.4.4.4.4.5.4.4.5.+.<.U U P 0 0 # n.n.n.n.n.",
"n.n.n.n.n.# ..4.4.4.4.4.5.4.4.4.+.;.U U U L 2 0 $ n.n.n.n.n.",
"n.n.n.n.n.+ G $.&.&.&.4.&.=.+.:.<.I U U U J $ q # n.n.n.n.n.",
"n.n.n.n.n.. S <.1.;.;.;.1.<.<.U U U U U I H # e # n.n.n.n.n.",
"n.n.n.n.n.. C U U U U U U U U U U U U U U Z . # o n.n.n.n.n.",
"n.n.n.n.n.  N P U U U U U U U U U U U U U v     n.n.n.n.n.n.",
"n.n.n.n.n.  q P U U U U U U U U U U U U I t   n.n.n.n.n.n.n.",
"n.n.n.n.n.n.+ A U U U U U U U U U U U U P 0 X n.n.n.n.n.n.n.",
"n.n.n.n.n.n.X t U U P P P P P U U U U U K $ n.n.n.n.n.n.n.n.",
"n.n.n.n.n.n.  t U I v q q q v P U U U U A # n.n.n.n.n.n.n.n.",
"n.n.n.n.n.n.  r I U V $     $ L U U U U N o n.n.n.n.n.n.n.n.",
"n.n.n.n.n.n.  t P U U N     $ J U U U I q X n.n.n.n.n.n.n.n.",
"n.n.n.n.n.n.X r U U U v   n.+ H U U U K # n.n.n.n.n.n.n.n.n.",
"n.n.n.n.n.n.X $ B S C 0 O > . A U U I t o n.n.n.n.n.n.n.n.n.",
"n.n.n.n.n.n.d , % % % ; k W ; 0 v v r % ; n.n.n.n.n.n.n.n.n.",
"n.n.n.n.n.n.! W l l l W ! ! k : % ; ; s W n.n.n.n.n.n.n.n.n.",
"n.n.n.n.n.n.Q ~ ! ! ! ! ! ! ! W W W W Q n.n.n.n.n.n.n.n.n.n.",
"n.n.n.n.n.n.n.n.n.n.n.n.n.~ n.n.n.n.n.n.n.n.n.n.n.n.n.n.n.n.",
"n.n.n.n.n.n.n.n.n.n.n.n.n.n.n.n.n.n.n.n.n.n.n.n.n.n.n.n.n.n."
};
