/* XPM */
static char *result[] = {
/* columns rows colors chars-per-pixel */
"27 40 138 2 ",
"   c #030104",
".  c #0B0205",
"X  c #060508",
"o  c #0C0308",
"O  c #06080A",
"+  c #130405",
"@  c #190405",
"#  c #13030A",
"$  c #1C040E",
"%  c #17090F",
"&  c #1C0D0E",
"*  c #0E0E11",
"=  c #1E0510",
"-  c #150F11",
";  c #0F1215",
":  c #141517",
">  c #1A1215",
",  c #15171A",
"<  c #191719",
"1  c #1B1819",
"2  c #240607",
"3  c #2C0606",
"4  c #21050E",
"5  c #2C050C",
"6  c #220A0B",
"7  c #2B090A",
"8  c #320707",
"9  c #3C0707",
"0  c #34070A",
"q  c #3C0709",
"w  c #34090A",
"e  c #3B0A0A",
"r  c #220511",
"t  c #2B0515",
"y  c #310517",
"u  c #3D061D",
"i  c #1B1E22",
"p  c #192025",
"a  c #232423",
"s  c #20272B",
"d  c #212B2F",
"f  c #292A2A",
"g  c #202D30",
"h  c #26353A",
"j  c #2A363B",
"k  c #2B383F",
"l  c #323334",
"z  c #36363A",
"x  c #3C3D3D",
"c  c #440909",
"v  c #4F0B0A",
"b  c #540A0A",
"n  c #5A0B0B",
"m  c #450911",
"M  c #480910",
"N  c #40061F",
"B  c #630C0C",
"V  c #6E0D0C",
"C  c #760D0C",
"Z  c #7A0D0D",
"A  c #660A1F",
"S  c #450620",
"D  c #4B0724",
"F  c #520726",
"G  c #560728",
"H  c #59072B",
"J  c #550828",
"K  c #5B082B",
"L  c #63082E",
"P  c #68092D",
"I  c #770A2A",
"U  c #660830",
"Y  c #6B0832",
"T  c #750836",
"R  c #7D0935",
"E  c #7A0839",
"W  c #2C3D41",
"Q  c #31454B",
"!  c #3C535B",
"~  c #3E595F",
"^  c #3F5A61",
"/  c #414144",
"(  c #4B4C4D",
")  c #455D65",
"_  c #46636B",
"`  c #49656D",
"'  c #4D6770",
"]  c #4E6C75",
"[  c #51717A",
"{  c #5D737D",
"}  c #860F0E",
"|  c #8B0F0F",
" . c #930F0F",
".. c #8B100F",
"X. c #9B110F",
"o. c #9C0F1A",
"O. c #9A1110",
"+. c #A5110F",
"@. c #AD0F1E",
"#. c #A51210",
"$. c #AB1111",
"%. c #B41211",
"&. c #BB1214",
"*. c #B51119",
"=. c #BA1118",
"-. c #820C24",
";. c #8D0B2F",
":. c #930C2B",
">. c #980C28",
",. c #820A34",
"<. c #8A0A30",
"1. c #A40E22",
"2. c #AA0F20",
"3. c #C51311",
"4. c #C91412",
"5. c #5B7A86",
"6. c #668B98",
"7. c #6E96A3",
"8. c #7096A4",
"9. c #729BA9",
"0. c #7DA6B5",
"q. c #83AEBD",
"w. c #83B1C1",
"e. c #88B4C5",
"r. c #8BBBCB",
"t. c #9DBDC9",
"y. c #8FBFD0",
"u. c #9BCADC",
"i. c #A2CDDD",
"p. c #ACD1DE",
"a. c #B3D6E2",
"s. c #B7D9E4",
"d. c #BBDAE5",
"f. c #CDE4EB",
"g. c #E6F1F5",
"h. c #EFF6F7",
"j. c #F5FAFB",
"k. c None",
/* pixels */
"k.k.k.k.k.k.k.k.k.k.k.k.k.k.k.k.k.k.k.k.k.k.k.k.k.k.k.",
"k.k.k.k.k.k.k.k.k.k.k.k.k.k.k.k.k.k.k.k.k.k.k.k.k.k.k.",
"k.k.k.k.k.k.k.k.k.k.k.k.k.k.k.k.k.k.k.k.k.k.k.k.k.k.k.",
"k.k.k.k.k.k.k.k.k.k.k.k.k.k.k.k.k.k.k.k.k.k.k.k.k.k.k.",
"k.k.k.k.k.k.k.k.k.o @ 6 2 3 3 3 7 +   k.k.k.k.k.k.k.k.",
"k.k.k.k.k.k.k.k.+ b ..X.+.$.$.$.+.Z 6   k.k.k.k.k.k.k.",
"k.k.k.k.k.k.k.  v %.4.3.3.%.&.%.%.$.V + k.k.k.k.k.k.k.",
"k.k.k.k.k.k.k.2 X.3.3.X.b c e e e e w o   k.k.k.k.k.k.",
"k.k.k.k.k.k.  M &.3.%.v s ) ' ' ] ' ) j ; k.k.k.k.k.k.",
"k.k.k.k.k.k.o A &.3. .& _ y.u.p.d.d.s.u.{ p   k.k.k.k.",
"k.k.k.k.k.  $ I =.3.V < ] r.u.f.h.j.j.g.p.5., k.k.k.k.",
"k.k.k.X # + y R *.3.n i ` 8.r.i.s.f.f.d.i.e.j k.k.k.k.",
"k.k.k.. n 0 N R @.3.B i ) ' 5.6.9.0.q.w.q.7.g k.k.k.k.",
"k.k.k.+ B 8 F R 1.3.Z > ! ` _ ` ` ' ] [ [ ! ; k.k.k.k.",
"k.k.k.. m 4 K E >.3.#.7 h _ ` ` ` _ ` ` _ k O k.k.k.k.",
"k.k.k.. t r L E :.&.3.V - g Q ! ~ ) ^ ! Q ;   k.k.k.k.",
"k.k.k.  r = U E ;.&.4.%.Z q 6 & < < < & & . k.k.k.k.k.",
"k.k.k.. r r U E ;.=.3.3.3.%.X.} C C C } ..8 k.k.k.k.k.",
"k.k.k.. = r Y E ,.*.4.3.3.3.3.4.3.3.4.4.%.9 k.k.k.k.k.",
"k.k.k.  $ = U E E @.3.3.3.3.3.3.3.3.3.4.%.q k.k.k.k.k.",
"k.k.k.X r = L R E ;.*.3.3.3.3.3.3.3.3.4.$.0 k.k.k.k.k.",
"k.k.k.  r $ H E T R :.=.3.3.3.3.3.3.3.3.o.t k.k.k.k.k.",
"k.k.k.. t $ F E E E R :.2.=.&.3.3.3.&.=.-.$ k.k.k.k.k.",
"k.k.k.  t 4 S E E E E E R <.:.:.>.:.>.<.P $ k.k.k.k.k.",
"k.k.k.  # . u E E E T E E E E E E E E E K # k.k.k.k.k.",
"k.k.k.k.    y T E E E E E E T E E E E E F o k.k.k.k.k.",
"k.k.k.k.k.k.r Y E E E E E E E E E E E T u   k.k.k.k.k.",
"k.k.k.k.k.k.$ P E E E E E E E E E E E U = k.k.k.k.k.k.",
"k.k.k.k.k.k.. G E E E E E Y U U Y T E G . k.k.k.k.k.k.",
"k.k.k.k.k.k.  S E E E E L t $ $ t K R F . k.k.k.k.k.k.",
"k.k.k.k.k.k.  y T E E E G o   . S T E F . k.k.k.k.k.k.",
"k.k.k.k.k.k.k.$ Y E E E G o   $ Y E E F . k.k.k.k.k.k.",
"k.k.k.k.k.k.k.. D E E E D o O # G T T N . k.k.k.k.k.k.",
"k.k.k.k.k.k.k.X = G U L y , z : $ t r $ * k.k.k.k.k.k.",
"k.k.k.k.k.k.k.z < % $ # - l ( x f a f l / k.k.k.k.k.k.",
"k.k.k.k.k.k.k.( / z l l x ( ( ( ( ( ( ( ( k.k.k.k.k.k.",
"k.k.k.k.k.k.k.k.k.k.( ( ( ( ( ( ( ( k.k.k.k.k.k.k.k.k.",
"k.k.k.k.k.k.k.k.k.k.k.k.k.k.k.k.k.k.k.k.k.k.k.k.k.k.k.",
"k.k.k.k.k.k.k.k.k.k.k.k.k.k.k.k.k.k.k.k.k.k.k.k.k.k.k.",
"k.k.k.k.k.k.k.k.k.k.k.k.k.k.k.k.k.k.k.k.k.k.k.k.k.k.k."
};
