/* XPM */
static char *_641482690817[] = {
/* columns rows colors chars-per-pixel */
"60 40 112 2 ",
"   c black",
".  c #000100",
"X  c #020403",
"o  c #030504",
"O  c #050706",
"+  c #060807",
"@  c #070908",
"#  c #090909",
"$  c #080A09",
"%  c #090B0A",
"&  c gray4",
"*  c #0A0C0B",
"=  c #0B0D0C",
"-  c gray5",
";  c #0C0E0D",
":  c #0D0F0E",
">  c #0E100F",
",  c #0F1110",
"<  c #0E1211",
"1  c #101010",
"2  c #111111",
"3  c #101211",
"4  c #111312",
"5  c gray7",
"6  c #131313",
"7  c #121413",
"8  c #131514",
"9  c gray8",
"0  c #151515",
"q  c #141615",
"w  c #151716",
"e  c gray9",
"r  c #161817",
"t  c #171918",
"y  c #181818",
"u  c #191919",
"i  c #181A19",
"p  c #191B1A",
"a  c gray10",
"s  c #1B1B1B",
"d  c #1A1C1B",
"f  c #1B1D1C",
"g  c gray11",
"h  c #1D1D1D",
"j  c #1C1E1D",
"k  c #1D1F1E",
"l  c #1E1E1E",
"z  c gray12",
"x  c #1E201F",
"c  c #1F2120",
"v  c #202020",
"b  c gray13",
"n  c #202221",
"m  c #212322",
"M  c #222222",
"N  c #222423",
"B  c #232524",
"V  c gray14",
"C  c #252525",
"Z  c #242625",
"A  c #252726",
"S  c #262827",
"D  c #272928",
"F  c #282828",
"G  c #282A29",
"H  c #292B2A",
"J  c #2A2A2A",
"K  c gray17",
"L  c #2A2C2B",
"P  c #2B2D2C",
"I  c #2D2D2D",
"U  c #2C2E2D",
"Y  c #2D2F2E",
"T  c gray18",
"R  c #2E302F",
"E  c #2F3130",
"W  c #303231",
"Q  c #313332",
"!  c #323433",
"~  c #333534",
"^  c #343635",
"/  c #353736",
"(  c #363837",
")  c #373938",
"_  c gray22",
"`  c #393939",
"'  c #383A39",
"]  c #393B3A",
"[  c #3A3A3A",
"{  c #3A3C3B",
"}  c #3B3D3C",
"|  c #3C3E3D",
" . c #3D3F3E",
".. c #3E403F",
"X. c #3F4140",
"o. c #414141",
"O. c #404241",
"+. c #414342",
"@. c #434343",
"#. c #424443",
"$. c #434544",
"%. c #444645",
"&. c #454746",
"*. c #464646",
"=. c #464847",
"-. c #474948",
";. c #484A49",
":. c #494B4A",
">. c #4A4C4B",
",. c #4B4D4C",
"<. c #4D4F4E",
"1. c #4E504F",
/* pixels */
"w , k d k D x P D B ) r L -.E 8 * , c t B L B E x E S = } %.B , 4 n k i A n B E f ~ t f -.} i = ; x i x S B ~ D B ~ = D ",
"d > 7 t i n i k 8 t c = 8 ) -.f 7 > r t c P t c = N 7 * x #.} r i , e g k n r f , D 8 7 D >.P , , 7 t d B N x 7 t x @ 8 ",
"d 4 t d 7 O A Q = D > r * = D r d > f f t = ~ N 8 B = t X d N t i 4 k w # w ` 7 x c t 7 X A f i 4 t f , ; P E ; S > r * ",
"i n x w t w P  .d c f d 8 , * f d N x f x 8 { E f x f t r = , d z n w w t k @.c B B k 8 w @ r d n c 8 t r U } d c f d 8 ",
"; d 4 > 8 f w f 7 , R P 4 w k 4 , t , 8 t f 8 c * f ~ c , d f = i w ; 4 i y w k 8 D Q t 7 k t = f , , 8 f 8 x 4 , R L 8 ",
"r , 4 7 , t w n c # S B = 4 t 8 8 > r , 8 r 8 c r > E r > , f 8 7 ; w ; i w w A 4 i Q = 4 4 i 8 , 7 7 , t 7 f x * D B @ ",
"E %.w 4 i 4 H ..N B f f i i > 4 X.) > r f > ~ Q N N f c x r * x ;.A ; i r w  .F N c f i i 8 * E %.w 4 f 4 B } n B f k t ",
"N ~ 8 ( N n t R f r d # f 8 w i E S f ~ x , x L t t 8 t f , t d ` i U K k * U n 8 k = t w 4 d B { t ) n t 7 E f r f # f ",
"i @ w n U i i 4 w k k i 4 # H ) > = t D i r 8 7 8 c S r , = Q D @ 4 k H 4 i 1 w i k k 4 ; r ) n , r B A 4 t 4 7 f f d , ",
"; k U t ; d i ~ ` i w ; A P S H * S D ; * f d %.S N r 7 P S S d 4 U g ; w i A %.f f # k R n U i k P w @ t t ( ) t r > B ",
"* E P x k # H ;.Q 1 4 i n ,.Q . t ( x r r , } %.S , r t E -.8 . H Q w A w i %. .w ; i f  . .= ; Q H 7 d = P -.R r 8 t B ",
"w k t S @.w ~ o.n k i H B ) k i r f = ) ~ r %.~ L t N D N R t f e i i %.n V ;.A n w U n H U d i f , N #.w ) ..B B f P x ",
"A 1 w n ~ 4 n w ; 4 4 n A y 8 R r * = E S , S 7 7 > r n f 7 x P ; 4 k _ i i k # 4 , k n c i H n @ = B Q , n r w 8 7 c f ",
"w n i * # w d i Q ; n A A ` c n , f w @ * x x L N 8 B d P Q c d w c 4 O 4 x 4 Q w i n c  .S N 7 t t = @ t f B Q , n c n ",
"w 4 i # w 4 4 i Q w H ` A w # N > r 8 = t 7 i N P , E E N = 7 N w k ; 4 w , w U c i } Q k @ x r 4 d @ t > t f Q 8 A ~ B ",
"f w ; k k i 4 ; e i H k ; V f i d , , x d t > , d 8 S 7 r N d n k = w k i w # w w i L > c x t d w = f f c i ; i 8 c f ; ",
"D >.D x P 8 7 d * ..) # , d 7 * { =.k S D > t r > %.N * 7 f 8 x =.( k P c ; k ; n %.4 ; r d + S 1.S c E x 8 f @ ) ~ * 8 ",
"8 R 8 x X.c d 7 f } { k 7 , = 8 x L > R ( d d , B ..E t 7 7 d 8 H x 4  .H i i 4 Q  .A w , * 8 t P 8 N =.N d 7 d ) ) x 7 ",
"N 7 x t t @ t r , B t d i = t P t t f f > * f , t N r f 8 > c L 7 f d f & 4 i & n k i g > 7 D n 7 x N f + r 8 , B t f t ",
"x f * r , f r R t * N c R ( 7 d c d 8 > r r c U > 7 N N ( L > x c * r ; k 4 U A # k n A ` f w c d * t > f t E t * N c R ",
"* = f d x P c P D N ( * L >.E , > d c t B L x Q k R S * } =.N = # t k i L A P ~ i ) w t ;.} r * = f d x P c R D N ( = R ",
"r > 8 r f B t d 8 t x @ 8 ~ >.c d 4 8 d d N 8 x = N 8 * f #...7 4 4 t i d S f d > A * ; D >.P 4 , 8 r d c d f 7 t f = f ",
"d 7 t d d = B Q > S > r * = D x x > f r > * ~ N 7 D > t X d N r r 7 k w 4 x ` 7 x i 4 7 X A d i 7 t d 7 @ D E > S , x > ",
"t N x d x 8 P ..t c d d w , , k d N f 8 i r { E f D c t 8 = , d k n w r x c X.N x k k 8 w # k f N x 8 t 8 P ..t N S c 7 ",
"= d i i w f w k 7 , R L 4 f S 4 4 i 4 ; i i w n 8 x Q n 4 d d = t 8 7 d f t t d # S Q t 4 n x = d > > w d 8 k 4 8 ~ D 8 ",
"r , t r ; i 4 f k * S B , d i 8 w ; w 4 w e 6 H k = E r > , d 8 8 , x 8 r 8 t N > t E = r f d 8 , 8 7 , i 4 k N 7 D B @ ",
"E ,.t , f 4 N ` N B x x N f > 4  .( ; w g ; ~ ~ N n f d d t * x -.P 8 t r r } D N x f d N r * E %.w 4 f , A } H B x x t ",
"P { 7 ( n i 7 E f r i , c , 8 d Q A k ~ k w A U r d 8 > i , t d } c R L x * L B r x = k r 4 i B ~ 8 ) n i 7 ` x 8 d * f ",
"c * w N A > i 4 7 k f i 4 # A ~ ; ; i H k k w 8 8 k k w 7 = ~ D > 7 f P , d , 8 t f N t = r { d + w B B 4 c w 4 x f d , ",
"> f U 8 # t i ( ` t r = A P n A = A A ; 7 n i %.S d > 8 P B S d , R f @ 7 d S %.d c 8 x R n D > f P 8 # i k ` ( t r > B ",
"# Q L 8 d = L -.E > 4 i N -.H . i ~ c k k 4 ` %.N * w t E =.8 . D Q r t , f %.} t r d d ..} o * Q H 8 d = P ;.R > , d N ",
"t d > n #.r ( @.N k i U c R k f w k ; ~ ~ r -.Q n r S D N R r f r t 7 #.N B -.S D t L N H A t i d , N @.w `  .n f f P c ",
"B * * N ~ , c f , , , c x 8 r R 8 * = Q S , B * 7 > r c x 7 x L = * 8 ) d t x * 8 > f c d , L N @ = B ~ , c 7 = , 7 c f ",
"7 t t = + r c c E , N c c { x c 7 d 8 @ = f 7 S N 7 S f ( Q x d 8 f , @ , c 7 E r d B d ) S c 7 f f = @ t f d E , N c c ",
"8 , d @ r r d d Q 8 B ( S 8 * N > r 8 * t > 7 N P , Q ( S = 8 x = d > , 8 , r P c t ( L x @ x 8 8 B * r , 8 d E 8 B ~ B ",
"f r = d f N 8 = t 8 N f > B d x x , , x d t > > d 8 R t r c d d d = r c d 8 = 8 r t B = c f d x f > f f d , = d 8 N f > ",
"D ,.D c ~ r 7 f @ ( ~ * , d 8 8 { %.x S D > d 8 > =.D = 7 f * r -.( f P S , x * N %., > r d = E 1.S c P 8 7 f * ) ( @ 8 ",
"8 R 8 S %.c d 7 d ) { x 7 8 r t x L > R ( d d , S %.Q t 7 = , 8 L x 7 X.R d t 7 E ..S 8 , @ t f R 8 x ..x d 7 t { X.f 7 ",
"N 7 N N t @ t r > B t f d t f P t r f d , = d 7 c B r f 8 > x L 7 f c N * , d = N f t f , t P c 7 f d r @ t 8 7 P d d d ",
"x c 8 t = d r E t * N c E { 8 f c 8 > 7 r 8 c ( 8 7 B N ) P , x x > c > d 7 L B @ f N S ..S r c f @ r > d t Q c , N c P "
};
