/* XPM */
static char *_641482926646[] = {
/* columns rows colors chars-per-pixel */
"60 40 194 2 ",
"   c #4E2111",
".  c #4C261B",
"X  c #4E2A1E",
"o  c #502417",
"O  c #5C2515",
"+  c #54271A",
"@  c #532B1E",
"#  c #5C2B1C",
"$  c #612614",
"%  c #632C1C",
"&  c #6C2E1D",
"*  c #622B16",
"=  c #722F1E",
"-  c #63301E",
";  c #6C321E",
":  c #4F2E29",
">  c #4D2B21",
",  c #552C22",
"<  c #5C2E22",
"1  c #502F2A",
"2  c #563124",
"3  c #5D3224",
"4  c #543229",
"5  c #5D342A",
"6  c #5D3A2D",
"7  c #5A3731",
"8  c #5E3C32",
"9  c #602E21",
"0  c #682E20",
"q  c #643324",
"w  c #6B3424",
"e  c #6C3926",
"r  c #63362A",
"t  c #6A3629",
"y  c #653A2C",
"u  c #6C3C2C",
"i  c #723624",
"p  c #733926",
"a  c #7A3A26",
"s  c #723629",
"d  c #733C2B",
"f  c #7A3E2C",
"g  c #633C31",
"h  c #6D3E32",
"j  c #743E31",
"k  c #7B3E30",
"l  c #67412F",
"z  c #6E412E",
"x  c #75412D",
"c  c #7B412E",
"v  c #664134",
"b  c #6D4233",
"n  c #744333",
"m  c #7C4433",
"M  c #774A37",
"N  c #7C4935",
"B  c #744639",
"V  c #7D4738",
"C  c #754A3A",
"Z  c #7C4B3B",
"A  c #76503B",
"S  c #7B503F",
"D  c #734D42",
"F  c #7D4E42",
"G  c #725047",
"H  c #7C5243",
"J  c #7A544A",
"K  c #823E2A",
"L  c #803C25",
"P  c #83422D",
"I  c #8B442D",
"U  c #824533",
"Y  c #8B4632",
"T  c #834935",
"R  c #8A4A35",
"E  c #814739",
"W  c #844C3B",
"Q  c #8A4D3B",
"!  c #924A33",
"~  c #9B4F36",
"^  c #924E3A",
"/  c #84513E",
"(  c #8C523E",
")  c #93523D",
"_  c #9A533C",
"`  c #A5563A",
"'  c #A75C3F",
"]  c #834F41",
"[  c #894F42",
"{  c #845343",
"}  c #8C5443",
"|  c #865945",
" . c #8C5845",
".. c #845649",
"X. c #8D5749",
"o. c #855A4B",
"O. c #8C5B4B",
"+. c #925543",
"@. c #9B5541",
"#. c #945A46",
"$. c #9B5A45",
"%. c #905548",
"&. c #945C4B",
"*. c #9B5D4B",
"=. c #8B5E51",
"-. c #935E51",
";. c #995F52",
":. c #A25B45",
">. c #A95E43",
",. c #A15E4A",
"<. c #95614D",
"1. c #9C624D",
"2. c #8E6253",
"3. c #8B665A",
"4. c #89675B",
"5. c #946353",
"6. c #9C6453",
"7. c #956855",
"8. c #9C6955",
"9. c #956659",
"0. c #96695A",
"q. c #9B6B5B",
"w. c #9B705F",
"e. c #A3634D",
"r. c #A9634D",
"t. c #B26649",
"y. c #B6694D",
"u. c #A26553",
"i. c #AE6753",
"p. c #A46A56",
"a. c #AB6B55",
"s. c #A36C5B",
"d. c #AB6E5B",
"f. c #B56C53",
"g. c #B36E59",
"h. c #B86C52",
"j. c #A87057",
"k. c #A5725E",
"l. c #AB725D",
"z. c #B4745E",
"x. c #BA775C",
"c. c #926E60",
"v. c #9F7365",
"b. c #9D7B6F",
"n. c #A46F61",
"m. c #A37463",
"M. c #AC7462",
"N. c #AB7966",
"B. c #A5776A",
"V. c #AD7668",
"C. c #AB7B6B",
"Z. c #A67B6B",
"A. c #B17662",
"S. c #BF7761",
"D. c #B27966",
"F. c #BA7B64",
"G. c #B07668",
"H. c #B47C6A",
"J. c #BA7E6B",
"K. c #AC7C70",
"L. c #B07F70",
"P. c #C17F67",
"I. c #C17D68",
"U. c #B5806B",
"Y. c #BB826C",
"T. c #B8896F",
"R. c #AF8271",
"E. c #B78474",
"W. c #BB8472",
"Q. c #BE8B76",
"!. c #BC8779",
"~. c #BE897B",
"^. c #B5897C",
"/. c #C3846C",
"(. c #C18773",
"). c #C28B75",
"_. c #C48C7A",
"`. c #CB8B78",
"'. c #CB927B",
"]. c #C5917C",
"[. c #D1907E",
"{. c #B98F83",
"}. c #B99387",
"|. c #C49483",
" X c #C99481",
".X c #C19588",
"XX c #C99D8C",
"oX c #CA9B87",
"OX c #D19781",
"+X c #D19986",
"@X c #D19C8B",
"#X c #C99F91",
"$X c #D5A999",
"%X c #E0AC97",
/* pixels */
"w N q # 0 w # n Z r 0 x d e { Z 3 y x c e x x q z z y 6 l A l 3 f f i d i % t s < q 9 # 3 b b y y 8 4 4 5 r 1 4 7 4 1 1 ",
"N 8.=.n *.W 9 Z 5.Z w &.<.e q.N.Z 8.).U./ 1.k.x k.^.w.H 0.w.M A M.( E H.s.W *.G.5.V n.8.l B { y J }.4.4 h F r g G D 7 G ",
"n M p p Q R d m N N a U / x m Z M / l.p.n S ( N W s.s.S O.O.(  .p.<.&.s.6.n W %.{ N s.6.y t Z n v c.4.y j ..h , b v y D ",
"3 < } #.^ u.l.{ d ;.#.+.&.p.n x k.#.R l.l.x k.'.M.6.s.N.M A j.D.Y./.N.m X.X.W U &.s.d { ;.0.q.m.o.X b S ....=.F 2 J =.{ ",
"y y } } R R ) N Z k.e.1.1.p.N / N.p.e.p.Y.N 8.T.Y.D.J.E./ V W ( +.j.s.m s.M.n.M.s.0.j n.N.V.n.V.v.< F =.%...[ ..r ..3.J ",
"b F 9 i R P - } W ; c ) ( x 1.<.m ( z.p.c 8.<.x m &.V d  .&.k w Q ( x -.;.W R ;.X.j Z N E W 6.m t F h 9 t j t 9 q < # 3 ",
"B F n p.I.z.d q.8.( &.D.).( U.).} k.OXQ./ U.D.( %.D.q.{ W.@Xn.{ W.Y.{ V.!.%.&. X@X<.#.$.T 6.H.N.F c.c.j -.B.9.k ;.&.B ] ",
"< < h W ) ) ( W / +.+.+.( x c z x / ( <.N x x c Q Q m w d { O.V E W d u k m U W } d ; x U U T E s E ] j j V j < t d t h ",
"H < m.s.i.I.`.l.Q J.F.a.l.l.T ( l.U./.z.j.Q ( e.*.*.#.1.u | N.W.p.M.!. .k.D.a.6.1.D. .O.U.'.l.p.`.%.X.q.n.6.5.=., h K.O.",
"..r { +.Q +.^ Q f } c E ( *./ N e.' 1.e.<.(  .Q P P E &.m N #.*.*.*.p.W 6.l.*.e.r.l...m 1.j.a.1.M.+.] ] ..{ { &.9 y B.Z.",
"+.8.T } W w w u.<.w q.Q.5.<.Y.1.c $.<.; Q Q.M.c r.a.f 6.Y.&.O } ;.K ( *.E a $.e.c m 1.W p ( *.( #.H.;.9 Z o.B 3 ..B r h ",
"U )  .6.%.V X.K.o.C C.|.q. .D.Y.P j.8.( j.T.).1.F./.W &.H.p.W M.a.+.$.u.} m `.[.1.<.).]./ 1.a.( #. X|.B N.}.v.y O.F u H ",
"q 6._.n.;.6.{ , r b l z S / u } <.) p.T.m.M { s.p.s.u.-.B { m.n.6.M.;.w w [ u.*.#.s.X.n } q.s.M.&./ n B B { o.=.9.9 < j ",
"j L.|.J.J.W..XG }.$X#X#XoX].M Z.%X).).'.~.{ 6.E.H.G.J.{...0.^.).G.G.N.d m L.H.H.U. X!.% s.D.H.Y.H.N.B m.m.0.C.^.{.h W &.",
"k N n V W E O.C C C M M x z y {  .| Q e u H ] B V k %.[ j h j k U T W u w V c m R U 1.&.} +.@.u.#.W y M j z M C H 3 r q ",
"D.6.w W *.m O.#XB.| R.U.=.| U.q.z 8.D.l.q K.oXZ s p.6.k *.n.] d %.( u  .&.( i +.1.+.p.[.Y.1.F.[.M.5.Z.q.h ..5.q B 5.] < ",
" .<.f m ) ( 7.w.U./ U.j.O.<.O.0.| O.j.M.w.S 1.<.$.e.r.I Q <.O.x -.} t { Q +.m Q +.U Q *.u.E u.G.;.=.K.q.B -.n.F V =.O.q ",
"x E p.#.( l.N.M 7.U.x.z.'._.Z U. Xp.l.T.$X/ x ].Y.x.Y./.) ( N.~.!.@XE.X.p 6.M.+.$.&.E d M.d.,.*.{ d 9 ] F j k K u r &.;.",
"T ( ) ) 1.+.k.( U././.x.z.N.W <.d.1.1.6.C.7.N 8.1.e.a./.6.s.Y.D.M.p.V.;.x q.n.u.*.;.=.n z.g.g.z.F.s.j -.;.u.;.s.9.d s.u.",
"^ R a a P ^ _ e.U.t.r._ ) ) ( ( m Q +.e e C.8.e c a.x.R Q u.#.E Y f 0 ] ] n w k k % w t s L K Y U Y j K s s a s Z W m $ ",
"! ^ i $.1.r.~ t.' t.y.y.r.) r.j.&.p.*.Q ( H.T.e.n.I._.W :.r.U U e.:.% C..X-.t %.%.m R *.{ s ! @.U +.u.Q 0 W +.i ( N.} e ",
"! Y K f i x ~ ' ' ' ` ` _ P P R U $.( ( ( T U U U R ;.E R P K U ) ) m 0.v.9.s R Q Y K Y Q k ^ @.f U Q [ f %.+.a c &.{ w ",
"f +.,.@._ _ j.~ $.r.>.y.f.a.c m a.a.z.).).} O m.*.,.g.u.6.# *.H.F.z.A.p.< F +.+.@.@.$.s %.#.#.+.+.[ < h X.%.^ +.W - } } ",
"O s R _ ! I R ; R ) _ ' @.$.T x $.e._ $.p.s.N m.+.E [ [ F y &.#.@._ $.u.% %.:.:.@.+.%.s &.&.} &.;.B.3 h ] U k E [ n W  .",
"Y K a U ) _ m <.%.P p U R i :.*.) P ! ^ f %.d.W % s k & d n.V $ L _ ^ a ! Q a Q +.c n Z.O.t R W t h [ m 0 t d f W n.} % ",
"[ ,.m Q @.1.N 1.u.6.T U *.K +.a.1.T @.^ f [ u.u.j [ u.R d ;.6.m @.I.g.^ i.,.U 8.p.M Z B.Z.j U %.j X.L.q.j =.;.W W s.6.0 ",
"s t 0 0 ; c c x u Q U f P f f p ( ( P T f Z k ] V V } #.W m Q K K K Y = i k k m S x 3 5 b u m W j B { W q C o.V h j m u ",
"6.0 V W / M.l.1.j &.u.a.d.p.6.d <.p.+.6.m.6.] s.G.d.u.N.H.;.i.>.:._ :.^ i G. X_.T.N.9.y H 9.8.k.6.] u 5.9.C b 9.q.C O.O.",
"^ R f c ( +.( <.+.R Q +.$.Q $.f Q W W f W { k W } ( c U &.f R I ! ~ ~ ! = 8.1.1.<.} s.n <.&.} 1.} &.j 9.m.| { 2.2.y H M ",
"Y e.$.c U T ; N j.&.; Q 1.U a *.c w %.#.c E { Q p c c w m *.@.L P ~ I I T ; e $.#.w } M. .c T ) f u ..W u x M % u B , o ",
"P T T d }  .e d f U u V &.&.f K w d #.&.N n R U d X.} U T *.*.c T ) R ( +.Q c <.l.( T M.p.U <.l. .} d.d.W } W p n &.F C ",
"a ; p w # # u e U } / w % ( $.U f m t d { m m U t t q e f a p a m f d U T Q c - - - * f U e i N x w U T & i j m w u u 2 ",
"U m ^ W t % &.} &.u.s.%.m u.$.g.@.Y d % ;.1.1.<.{ } q q.N.p.1.l.8.x <.p.l.z.8.- R  .R N 1.&.; R ( $.) R T * c #.#.} <.&.",
"O ; s i t j f w a T m E s f = K ! K 0 % U U R W x n n ../ ( #.<./ - c ) $.( / z c c x ; d ; c ( R P Y R T e c ( #. .}  .",
"5 u n j t &.;.s Q #.m } d.$.U z.g.@.+.#.#.* f } n t H.&.u m $.+.z w.<.a R ) d &.p.) z 7.m.#.c Y R c $.) ; ; a a 0 j n q ",
", , 9 9 9 r h 0 d U s V %.W s m Q f i T { - p U m # X.%.e N ) Q ; / / ; c T m c ) <.x S ..N U $.&.N _ 1.x x Q c t B b q ",
"r 5 t t t t , q k d w y t < t d w T d q   < e ; w d u # e p a c e - # y U c m x N l q 2 q u V Z q q e ; w * * # + o @ 3 ",
"< r j j u B r h O.} { W W n O.9.X.8.6.9.b v.C.N.1.8.q.n 8.1.e.1.<.| n o. . .5.m.C.o.| 7.q.v.7.0.y M  .&.&.W ..y B D J 4.",
"5 < s s < 9 t g r r u h d M Z r u d b M M  .Z V S N } x p c c p ; - l l y z z l b y l z x M u v @ 2 r u r q 5 . , 2 2 > ",
"h h [ [ t r j j , B F O.V 8.F q n n u b <.| r V { Z x 6.#.m #.*./ A <.| x q.0.Z l o.A 2 # l 3 v b.4.n   # + X 8 5 , . 4 "
};
